<svg width="53" height="58" viewBox="0 0 53 58" fill="none" xmlns="http://www.w3.org/2000/svg">
<g clip-path="url(#clip0_2_343)">
<path d="M9.85938 10.0733H48.7564V47.6931H9.85938V10.0733Z" fill="#5DE1C4"/>
<path d="M45.6429 10.0733H48.7565V47.6931H45.6429V10.0733Z" fill="#0AB69F"/>
<path d="M5.33189 5.13309C2.83132 5.13309 0.804321 7.34495 0.804321 10.0733V47.1712H9.85936V10.0733C9.85936 7.34495 7.83226 5.13309 5.33189 5.13309Z" fill="#0AB69F"/>
<path d="M5.33191 5.13309C4.78486 5.13309 4.26054 5.23897 3.77515 5.43284C5.50875 6.12543 6.74586 7.94174 6.74586 10.0732V47.1711H9.85938V10.0733C9.85938 7.34495 7.83227 5.13309 5.33191 5.13309Z" fill="#008B81"/>
<path d="M9.85938 16.1343H41.7602V41.6322H9.85938V16.1343Z" fill="#FB7079"/>
<path d="M38.6466 16.1343H41.7601V41.6322H38.6466V16.1343Z" fill="#EA5C6B"/>
<path d="M7.08025 51.7397C9.39067 50.6948 10.4873 47.804 9.52961 45.283C8.57194 42.762 5.92263 41.5655 3.61221 42.6104C1.3018 43.6554 0.20518 46.5462 1.16285 49.0671C2.12053 51.5881 4.76984 52.7847 7.08025 51.7397Z" fill="#0AB69F"/>
<path d="M5.83572 48.4637C6.48795 48.1688 6.79751 47.3527 6.52714 46.6409C6.25676 45.9292 5.50885 45.5914 4.85662 45.8864C4.20439 46.1813 3.89484 46.9974 4.16521 47.7092C4.43558 48.4209 5.1835 48.7587 5.83572 48.4637Z" fill="#037E73"/>
<path d="M24.8229 37.3096L18.0871 29.9599C17.5421 29.3653 17.5421 28.4011 18.0871 27.8065L24.8229 20.4568C25.3678 19.8621 26.2514 19.8621 26.7965 20.4568L33.5323 27.8065C34.0773 28.4011 34.0773 29.3653 33.5323 29.9599L26.7965 37.3096C26.2514 37.9042 25.3678 37.9042 24.8229 37.3096Z" fill="#F4DAA7"/>
<path d="M33.5324 27.8065L26.7966 20.4568C26.2516 19.8621 25.368 19.8621 24.823 20.4568L24.2531 21.0787L30.4188 27.8065C30.9638 28.4011 30.9638 29.3653 30.4188 29.9599L24.2531 36.6877L24.823 37.3096C25.368 37.9042 26.2516 37.9042 26.7966 37.3096L33.5324 29.9599C34.0773 29.3653 34.0773 28.4011 33.5324 27.8065Z" fill="#F1CD88"/>
<path d="M24.2726 37.9101C24.6964 38.3726 25.2531 38.6037 25.8099 38.6037C26.3666 38.6037 26.9233 38.3726 27.347 37.9101L34.0828 30.5604C34.9303 29.6356 34.9303 28.1307 34.0827 27.2058L27.3469 19.8561C26.4993 18.9315 25.1201 18.9313 24.2725 19.8563L17.5367 27.2059C16.6892 28.1308 16.6892 29.6357 17.5367 30.5605L24.2726 37.9101ZM18.6377 28.407L25.3735 21.0574C25.614 20.7948 26.0057 20.7948 26.2463 21.0573L32.982 28.407C33.2226 28.6696 33.2226 29.0968 32.9821 29.3594L26.2463 36.7089C26.0057 36.9715 25.614 36.9715 25.3735 36.7089L18.6378 29.3593C18.397 29.0968 18.397 28.6696 18.6377 28.407Z" fill="black"/>
<path d="M22.1016 46.8438H10.6378V42.4814H41.7602C42.1901 42.4814 42.5386 42.1011 42.5386 41.6321V16.1342C42.5386 15.6651 42.1901 15.2849 41.7602 15.2849H10.6378V10.9226H16.9626C17.3925 10.9226 17.741 10.5424 17.741 10.0733C17.741 9.60426 17.3925 9.22399 16.9626 9.22399H10.5802C10.2024 6.43289 7.99318 4.28377 5.33195 4.28377C2.40629 4.28377 0.026001 6.881 0.026001 10.0733V47.1713C0.026001 50.3636 2.40629 52.9607 5.33195 52.9607C7.82464 52.9607 9.92024 51.0749 10.4862 48.5424H22.1016C22.5314 48.5424 22.8799 48.1621 22.8799 47.6931C22.8799 47.224 22.5314 46.8438 22.1016 46.8438ZM37.1824 40.7828C37.2495 38.4074 38.8766 36.4533 40.9817 36.1047V40.7828H37.1824ZM40.9818 21.0776C39.052 20.758 37.5227 19.0894 37.2298 16.9835H40.9818V21.0776ZM35.6608 16.9835C35.9727 20.0269 38.1926 22.4493 40.9818 22.7895V34.3926C38.0164 34.7543 35.6951 37.4698 35.6258 40.7827H10.6378V16.9835H35.6608ZM5.33195 5.98241C7.39923 5.98241 9.08115 7.81763 9.08115 10.0733V43.0784C8.12042 42.0307 6.79437 41.3818 5.33195 41.3818C3.86953 41.3818 2.54349 42.0306 1.58276 43.0784V10.0733C1.58276 7.81763 3.26468 5.98241 5.33195 5.98241ZM5.33195 51.262C3.26468 51.262 1.58276 49.4269 1.58276 47.1713C1.58276 44.9156 3.26468 43.0805 5.33195 43.0805C7.39923 43.0805 9.08115 44.9157 9.08115 47.1713C9.08104 49.4269 7.39923 51.262 5.33195 51.262Z" fill="black"/>
<path d="M51.6902 15.5335C52.12 15.5335 52.4685 15.1533 52.4685 14.6842C52.4685 14.2152 52.12 13.8349 51.6902 13.8349H49.5348V12.0491H51.6902C52.12 12.0491 52.4685 11.6688 52.4685 11.1997C52.4685 10.7307 52.12 10.3504 51.6902 10.3504H49.5348V10.0733C49.5348 9.60426 49.1863 9.22399 48.7564 9.22399H20.0761C19.6462 9.22399 19.2977 9.60426 19.2977 10.0733C19.2977 10.5424 19.6462 10.9226 20.0761 10.9226H47.978V46.8437H25.2151C24.7852 46.8437 24.4367 47.224 24.4367 47.6931C24.4367 48.1621 24.7852 48.5424 25.2151 48.5424H48.7565C49.1864 48.5424 49.5349 48.1621 49.5349 47.6931V46.894H51.6903C52.1201 46.894 52.4687 46.5137 52.4687 46.0447C52.4687 45.5756 52.1201 45.1954 51.6903 45.1954H49.5349V43.4095H51.6903C52.1201 43.4095 52.4687 43.0293 52.4687 42.5602C52.4687 42.0912 52.1201 41.7109 51.6903 41.7109H49.5349V39.925H51.6903C52.1201 39.925 52.4687 39.5448 52.4687 39.0757C52.4687 38.6067 52.1201 38.2264 51.6903 38.2264H49.5349V36.4406H51.6903C52.1201 36.4406 52.4687 36.0603 52.4687 35.5912C52.4687 35.1222 52.1201 34.7419 51.6903 34.7419H49.5349V32.9561H51.6903C52.1201 32.9561 52.4687 32.5758 52.4687 32.1068C52.4687 31.6377 52.1201 31.2574 51.6903 31.2574H49.5349V29.4716H51.6903C52.1201 29.4716 52.4687 29.0913 52.4687 28.6223C52.4687 28.1532 52.1201 27.773 51.6903 27.773H49.5349V25.9871H51.6903C52.1201 25.9871 52.4687 25.6068 52.4687 25.1378C52.4687 24.6687 52.1201 24.2885 51.6903 24.2885H49.5349V22.5026H51.6903C52.1201 22.5026 52.4687 22.1224 52.4687 21.6533C52.4687 21.1843 52.1201 20.804 51.6903 20.804H49.5349V19.0181H51.6903C52.1201 19.0181 52.4687 18.6379 52.4687 18.1688C52.4687 17.6998 52.1201 17.3195 51.6903 17.3195H49.5349V15.5337H51.6902V15.5335Z" fill="black"/>
<path d="M5.33199 44.9272C4.19805 44.9272 3.27551 45.9338 3.27551 47.1712C3.27551 48.4085 4.19805 49.4151 5.33199 49.4151C6.46594 49.4151 7.38847 48.4085 7.38847 47.1712C7.38847 45.9338 6.46594 44.9272 5.33199 44.9272ZM5.33199 47.7165C5.05645 47.7165 4.83227 47.4719 4.83227 47.1712C4.83227 46.8706 5.05645 46.6258 5.33199 46.6258C5.60754 46.6258 5.83171 46.8706 5.83171 47.1712C5.83171 47.4719 5.60754 47.7165 5.33199 47.7165Z" fill="black"/>
</g>
<defs>
<clipPath id="clip0_2_343">
<rect width="52.4425" height="57.2222" fill="white" transform="translate(0.0258789 0.0111084)"/>
</clipPath>
</defs>
</svg>
