<svg width="53" height="59" viewBox="0 0 53 59" fill="none" xmlns="http://www.w3.org/2000/svg">
<g clip-path="url(#clip0_2_333)">
<path d="M21.7731 40.4192H9.46716C8.9678 40.4192 8.56298 39.9774 8.56298 39.4326V15.7544L6.53761 17.9644C6.18226 18.3491 5.60903 18.3491 5.25367 17.9644L1.06731 13.3965C0.714704 13.0087 0.714704 12.3832 1.06731 11.9955L9.11453 3.21485C9.28343 3.03339 9.51043 2.93077 9.74746 2.92874H29.0789C29.3159 2.93077 29.5429 3.03339 29.7118 3.21485L37.759 11.9955C38.1116 12.3832 38.1116 13.0087 37.759 13.3965L33.5726 17.9644C33.2173 18.3491 32.6441 18.3491 32.2887 17.9644L30.2633 15.7544V29.5667L21.7731 40.4192Z" fill="#F29C1F"/>
<path d="M51.9003 53.4422L39.1785 56.0468C38.732 56.1375 38.2924 55.8556 38.1477 55.3857L35.6884 47.3253L33.229 55.3857C33.0843 55.8556 32.6448 56.1375 32.1982 56.0468L19.4764 53.4422C19.2274 53.3914 19.0094 53.2291 18.8754 52.9946C18.7413 52.7602 18.7035 52.4752 18.7711 52.2089L21.773 40.4192L23.0298 35.4862H48.3469L52.6056 52.2089C52.6732 52.4752 52.6354 52.7602 52.5013 52.9946C52.3673 53.2291 52.1493 53.3914 51.9003 53.4422Z" fill="#E64C3C"/>
<path d="M34.513 44.4642C34.124 44.4639 33.7787 44.1921 33.6558 43.7893L30.5816 33.7261C30.4793 33.3913 30.5486 33.0224 30.7632 32.7583C30.9779 32.4943 31.3053 32.3752 31.6222 32.4461C31.9391 32.5169 32.1973 32.7668 32.2995 33.1016L35.3737 43.1648C35.4661 43.4663 35.4197 43.7979 35.249 44.0556C35.0783 44.3132 34.8043 44.4653 34.513 44.4642Z" fill="#802F34"/>
<path d="M24.8382 3.8956C24.8382 7.15397 22.4174 9.7954 19.4312 9.7954C16.445 9.7954 14.0242 7.15397 14.0242 3.8956C14.0235 3.57125 14.0508 3.24754 14.1056 2.92874H24.7568C24.8116 3.24754 24.8389 3.57125 24.8382 3.8956Z" fill="#D25627"/>
<path d="M45.1823 50.2851C46.4307 50.2851 47.4428 49.1808 47.4428 47.8186C47.4428 46.4564 46.4307 45.3521 45.1823 45.3521C43.9339 45.3521 42.9219 46.4564 42.9219 47.8186C42.9219 49.1808 43.9339 50.2851 45.1823 50.2851Z" fill="#F9EAB0"/>
<path d="M24.3862 17.7276C25.6346 17.7276 26.6466 16.6233 26.6466 15.2611C26.6466 13.8989 25.6346 12.7946 24.3862 12.7946C23.1378 12.7946 22.1257 13.8989 22.1257 15.2611C22.1257 16.6233 23.1378 17.7276 24.3862 17.7276Z" fill="#F9EAB0"/>
<path d="M48.347 31.5398V35.4862H23.0299V31.5398C23.0329 30.4514 23.8408 29.5699 24.8383 29.5667H46.5386C47.5361 29.5699 48.344 30.4514 48.347 31.5398Z" fill="#C03A2B"/>
</g>
<defs>
<clipPath id="clip0_2_333">
<rect width="52.4425" height="57.2222" fill="white" transform="translate(0.425293 0.955566)"/>
</clipPath>
</defs>
</svg>
