<svg width="54" height="58" viewBox="0 0 54 58" fill="none" xmlns="http://www.w3.org/2000/svg">
<g clip-path="url(#clip0_2_223)">
<path d="M36.0922 16.8791C35.6616 16.8791 35.3126 16.4982 35.3126 16.0285V10.4394C35.3126 9.96951 35.6615 9.58862 36.0922 9.58862C36.5228 9.58862 36.8718 9.96951 36.8718 10.4394V16.0285C36.8718 16.4983 36.5228 16.8791 36.0922 16.8791Z" fill="#F07281"/>
<path d="M44.7495 16.8791C44.3189 16.8791 43.9698 16.4982 43.9698 16.0285V10.4394C43.9698 9.96951 44.3188 9.58862 44.7495 9.58862C45.1801 9.58862 45.529 9.96951 45.529 10.4394V16.0285C45.529 16.4983 45.1801 16.8791 44.7495 16.8791Z" fill="#F07281"/>
<path d="M48.633 57.3225C49.2243 57.3225 49.6354 56.6875 49.442 56.0793C47.4712 49.8833 47.3435 44.9786 47.6483 41.5117C48.1091 36.2706 49.8173 31.3633 47.2468 27.5545C46.3099 26.1664 45.1609 25.4521 45.0385 23.7382C44.8549 21.169 47.2496 20.1538 47.0462 17.523C46.9249 15.9557 45.8936 13.9685 44.2355 13.7066C42.767 13.4746 41.1141 14.6444 40.421 16.6507C39.728 14.6443 38.075 13.4745 36.6065 13.7066C34.9485 13.9686 33.9171 15.9559 33.7958 17.523C33.5924 20.1538 35.9871 21.169 35.8034 23.7382C35.6809 25.4521 34.5319 26.1664 33.5951 27.5545C31.0245 31.3633 32.7329 36.2706 33.1936 41.5117C33.4983 44.9786 33.3708 49.8833 31.3998 56.0793C31.2063 56.6875 31.6175 57.3225 32.2088 57.3225H48.633Z" fill="#F58A97"/>
<path d="M49.4419 56.079C47.471 49.883 47.3434 44.9783 47.6482 41.5115C48.1089 36.2704 49.8172 31.363 47.2467 27.5543C46.3098 26.1662 45.1608 25.4518 45.0384 23.7378C44.8547 21.1686 47.2494 20.1534 47.046 17.5226C46.9247 15.9554 45.8933 13.9682 44.2353 13.7063C43.5735 13.6017 42.8744 13.7826 42.2423 14.1958C43.2352 14.9394 43.8366 16.3488 43.9275 17.5226C44.1309 20.1534 41.7363 21.1686 41.9199 23.7378C42.0423 25.4518 43.1913 26.1661 44.1282 27.5543C46.6988 31.363 44.9905 36.2704 44.5297 41.5115C44.225 44.9783 44.3525 49.883 46.3234 56.079C46.5169 56.6871 46.1057 57.3222 45.5144 57.3222H48.6328C49.2242 57.3222 49.6354 56.6872 49.4419 56.079Z" fill="#F07281"/>
<path d="M35.7679 22.8872C35.8097 23.1527 35.825 23.4342 35.8033 23.7378C35.7809 24.0515 35.7238 24.3315 35.6401 24.5885H45.2015C45.1179 24.3316 45.0607 24.0516 45.0384 23.7378C45.0167 23.4342 45.0321 23.1527 45.0738 22.8872H35.7679Z" fill="#F07281"/>
<path d="M50.1186 11.6265L41.1293 8.12676V6.45883C42.6025 6.38037 43.7786 5.05219 43.7786 3.43074V3.21593C43.7786 1.49782 42.4935 0.100006 40.9138 0.100006H40.748C39.1683 0.100006 37.8831 1.49782 37.8831 3.21593C37.8831 3.68578 38.232 4.06656 38.6626 4.06656C39.0932 4.06656 39.4423 3.68567 39.4423 3.21593C39.4423 2.43595 40.0281 1.80136 40.748 1.80136H40.9138C41.6337 1.80136 42.2194 2.43595 42.2194 3.21593V3.43085C42.2194 4.16435 41.6684 4.76116 40.9913 4.76116C40.2076 4.76116 39.57 5.45542 39.57 6.30884V8.1822L30.7231 11.6266C30.3176 11.7845 30.1061 12.2712 30.2508 12.7137C30.3955 13.1562 30.8415 13.3865 31.2471 13.229L40.4208 9.65746L49.5945 13.229C49.6811 13.2628 49.7696 13.2788 49.8565 13.2788C50.1768 13.2788 50.4769 13.0617 50.5907 12.7137C50.7356 12.2711 50.5242 11.7844 50.1186 11.6265Z" fill="#E19974"/>
<path d="M9.53769 16.8791C9.10709 16.8791 8.75812 16.4982 8.75812 16.0285V10.4394C8.75812 9.96951 9.10709 9.58862 9.53769 9.58862C9.96829 9.58862 10.3174 9.96951 10.3174 10.4394V16.0285C10.3174 16.4983 9.96829 16.8791 9.53769 16.8791Z" fill="#978ECB"/>
<path d="M18.1949 16.8791C17.7643 16.8791 17.4152 16.4982 17.4152 16.0285V10.4394C17.4152 9.96951 17.7642 9.58862 18.1949 9.58862C18.6255 9.58862 18.9745 9.96951 18.9745 10.4394V16.0285C18.9746 16.4983 18.6256 16.8791 18.1949 16.8791Z" fill="#978ECB"/>
<path d="M22.0784 57.3225C22.6697 57.3225 23.0809 56.6875 22.8875 56.0793C20.9166 49.8833 20.789 44.9786 21.0938 41.5117C21.5545 36.2706 23.2628 31.3633 20.6923 27.5545C19.7554 26.1664 18.6064 25.4521 18.484 23.7382C18.3003 21.169 20.695 20.1538 20.4916 17.523C20.3703 15.9557 19.339 13.9685 17.6809 13.7066C16.2124 13.4746 14.5595 14.6444 13.8664 16.6507C13.1734 14.6443 11.5205 13.4745 10.052 13.7066C8.39389 13.9686 7.36255 15.9559 7.24128 17.523C7.03786 20.1538 9.4325 21.169 9.24884 23.7382C9.12634 25.4521 7.97732 26.1664 7.04052 27.5545C4.46992 31.3633 6.17829 36.2706 6.63901 41.5117C6.94373 44.9786 6.81621 49.8833 4.84521 56.0793C4.65172 56.6875 5.06297 57.3225 5.65428 57.3225H22.0784Z" fill="#ACA6D6"/>
<path d="M22.8875 56.079C20.9166 49.883 20.789 44.9783 21.0938 41.5115C21.5545 36.2704 23.2628 31.363 20.6923 27.5543C19.7554 26.1662 18.6064 25.4518 18.484 23.7378C18.3003 21.1686 20.6949 20.1534 20.4915 17.5226C20.3702 15.9554 19.3389 13.9682 17.6808 13.7063C17.019 13.6017 16.32 13.7826 15.6879 14.1958C16.6807 14.9394 17.2822 16.3488 17.373 17.5226C17.5765 20.1534 15.1818 21.1686 15.3655 23.7378C15.4879 25.4518 16.6369 26.1661 17.5738 27.5543C20.1444 31.363 18.436 36.2704 17.9753 41.5115C17.6706 44.9783 17.7981 49.883 19.769 56.079C19.9625 56.6871 19.5512 57.3222 18.9599 57.3222H22.0784C22.6697 57.3222 23.0809 56.6872 22.8875 56.079Z" fill="#978ECB"/>
<path d="M9.21342 22.8872C9.25521 23.1527 9.27057 23.4342 9.24886 23.7378C9.22643 24.0515 9.16938 24.3315 9.08569 24.5885H18.6469C18.5633 24.3316 18.5062 24.0516 18.4839 23.7378C18.4621 23.4342 18.4774 23.1527 18.5193 22.8872H9.21342Z" fill="#978ECB"/>
<path d="M23.5641 11.6265L14.5747 8.12676V6.45883C16.0479 6.38037 17.2241 5.05219 17.2241 3.43074V3.21593C17.2241 1.49782 15.9389 0.100006 14.3592 0.100006H14.1935C12.6138 0.100006 11.3285 1.49782 11.3285 3.21593C11.3285 3.68578 11.6775 4.06656 12.1081 4.06656C12.5387 4.06656 12.8877 3.68567 12.8877 3.21593C12.8877 2.43595 13.4734 1.80136 14.1935 1.80136H14.3592C15.0792 1.80136 15.6648 2.43595 15.6648 3.21593V3.43085C15.6648 4.16435 15.114 4.76116 14.4367 4.76116C13.6531 4.76116 13.0155 5.45542 13.0155 6.30884V8.1822L4.16856 11.6266C3.76305 11.7845 3.55154 12.2712 3.69637 12.7137C3.841 13.1562 4.28707 13.3865 4.69258 13.229L13.8662 9.65746L23.04 13.229C23.1265 13.2628 23.215 13.2788 23.302 13.2788C23.6223 13.2788 23.9224 13.0617 24.0362 12.7137C24.181 12.2711 23.9696 11.7844 23.5641 11.6265Z" fill="#E19974"/>
</g>
<defs>
<clipPath id="clip0_2_223">
<rect width="52.4425" height="57.2222" fill="white" transform="translate(0.922363 0.100006)"/>
</clipPath>
</defs>
</svg>
