<svg width="54" height="58" viewBox="0 0 54 58" fill="none" xmlns="http://www.w3.org/2000/svg">
<g clip-path="url(#clip0_2_280)">
<path d="M45.3608 9.03937H35.4308V4.25484C35.4308 3.68452 35.8545 3.22227 36.3771 3.22227H44.4144C44.9371 3.22227 45.3608 3.68463 45.3608 4.25484V9.03937Z" fill="#FFD064"/>
<path d="M44.4144 3.22227H42.252C42.7746 3.22227 43.1983 3.68452 43.1983 4.25484V9.03937H45.3607V4.25484C45.3607 3.68452 44.937 3.22227 44.4144 3.22227Z" fill="#FFC250"/>
<path d="M40.3957 33.0968C47.1342 33.0968 52.5967 27.1364 52.5967 19.7839C52.5967 12.4313 47.1342 6.47086 40.3957 6.47086C33.6573 6.47086 28.1948 12.4313 28.1948 19.7839C28.1948 27.1364 33.6573 33.0968 40.3957 33.0968Z" fill="#F9F6F6"/>
<path d="M40.3957 6.47086C39.9613 6.47086 39.5323 6.49611 39.1096 6.5444C45.2434 7.24559 50.0245 12.9052 50.0245 19.7839C50.0245 26.6624 45.2434 32.3221 39.1096 33.0233C39.5323 33.0716 39.9613 33.0968 40.3957 33.0968C47.1341 33.0968 52.5967 27.1365 52.5967 19.7839C52.5967 12.4312 47.1341 6.47086 40.3957 6.47086Z" fill="#DDDAEC"/>
<path d="M51.2277 48.1021H8.00402C7.62054 48.1021 7.30957 47.7629 7.30957 47.3444V26.0007C7.30957 25.336 7.80347 24.7972 8.4126 24.7972H40.0784C40.6347 24.7972 41.1655 25.0524 41.5408 25.5006L52.0797 38.0841C52.4122 38.4811 52.5966 38.9996 52.5966 39.5374V46.6084C52.5967 47.4334 51.9837 48.1021 51.2277 48.1021Z" fill="#80B4FB"/>
<path d="M52.0797 38.0841L41.5408 25.5006C41.1655 25.0524 40.6348 24.7972 40.0784 24.7972H37.8235C38.3799 24.7972 38.9107 25.0524 39.286 25.5006L49.8249 38.0841C50.1574 38.4811 50.3417 38.9996 50.3417 39.5374V46.6084C50.3417 47.4334 49.7288 48.1021 48.9728 48.1021H51.2276C51.9836 48.1021 52.5966 47.4334 52.5966 46.6084V39.5374C52.5967 38.9995 52.4123 38.4811 52.0797 38.0841Z" fill="#61A2F9"/>
<path d="M41.5408 25.5006C41.1655 25.0524 40.6347 24.7972 40.0784 24.7972H35.8273V35.6009C35.8273 36.0696 36.1756 36.4496 36.6052 36.4496H50.7108L41.5408 25.5006Z" fill="#E4F6FF"/>
<path d="M39.286 25.5006L48.4561 36.4497H50.7109L41.5408 25.5006C41.1655 25.0524 40.6348 24.7972 40.0784 24.7972H37.8235C38.3799 24.7972 38.9107 25.0524 39.286 25.5006Z" fill="#D3EFFB"/>
<path d="M43.7649 54.0222C46.6004 54.0222 48.899 51.514 48.899 48.4201C48.899 45.3262 46.6004 42.818 43.7649 42.818C40.9294 42.818 38.6307 45.3262 38.6307 48.4201C38.6307 51.514 40.9294 54.0222 43.7649 54.0222Z" fill="#26457D"/>
<path d="M43.7649 42.818C43.4741 42.818 43.1895 42.8457 42.9119 42.8965C45.3412 43.34 47.1931 45.6435 47.1931 48.4201C47.1931 51.1968 45.3413 53.5003 42.9119 53.9437C43.1895 53.9944 43.4741 54.0222 43.7649 54.0222C46.6004 54.0222 48.8991 51.514 48.8991 48.4201C48.8991 45.3262 46.6004 42.818 43.7649 42.818Z" fill="#21386B"/>
<path d="M43.7649 50.2816C44.7071 50.2816 45.4709 49.4482 45.4709 48.4201C45.4709 47.392 44.7071 46.5586 43.7649 46.5586C42.8227 46.5586 42.0589 47.392 42.0589 48.4201C42.0589 49.4482 42.8227 50.2816 43.7649 50.2816Z" fill="#F9F6F6"/>
<path d="M43.765 46.5586C43.5166 46.5586 43.2813 46.6178 43.0684 46.722C43.6631 47.0129 44.0779 47.6631 44.0779 48.4202C44.0779 49.1773 43.6629 49.8275 43.0684 50.1184C43.2812 50.2226 43.5166 50.2818 43.765 50.2818C44.7072 50.2818 45.471 49.4484 45.471 48.4202C45.471 47.392 44.7072 46.5586 43.765 46.5586Z" fill="#DDDAEC"/>
<path d="M18.1894 54.0222C21.025 54.0222 23.3236 51.514 23.3236 48.4201C23.3236 45.3262 21.025 42.818 18.1894 42.818C15.3539 42.818 13.0553 45.3262 13.0553 48.4201C13.0553 51.514 15.3539 54.0222 18.1894 54.0222Z" fill="#26457D"/>
<path d="M18.1896 42.818C17.8988 42.818 17.6142 42.8457 17.3366 42.8965C19.7659 43.34 21.6177 45.6435 21.6177 48.4201C21.6177 51.1968 19.766 53.5003 17.3366 53.9437C17.6142 53.9944 17.8988 54.0222 18.1896 54.0222C21.0251 54.0222 23.3238 51.514 23.3238 48.4201C23.3238 45.3262 21.0251 42.818 18.1896 42.818Z" fill="#21386B"/>
<path d="M18.1895 50.2816C19.1317 50.2816 19.8955 49.4482 19.8955 48.4201C19.8955 47.392 19.1317 46.5586 18.1895 46.5586C17.2473 46.5586 16.4835 47.392 16.4835 48.4201C16.4835 49.4482 17.2473 50.2816 18.1895 50.2816Z" fill="#F9F6F6"/>
<path d="M18.1896 46.5586C17.9412 46.5586 17.7059 46.6178 17.493 46.722C18.0877 47.0129 18.5025 47.6631 18.5025 48.4202C18.5025 49.1773 18.0876 49.8275 17.493 50.1184C17.7058 50.2226 17.9412 50.2818 18.1896 50.2818C19.1318 50.2818 19.8956 49.4484 19.8956 48.4202C19.8956 47.392 19.1318 46.5586 18.1896 46.5586Z" fill="#DDDAEC"/>
<path d="M16.6226 38.3198L16.0246 37.6495L19.668 33.7799L16.0246 29.9103L16.6226 29.2399C17.4496 28.3129 18.8087 28.2929 19.6583 29.1952L22.8513 32.5864C23.0169 32.7622 23.1517 32.9725 23.2307 33.2093C23.4407 33.8386 23.2842 34.5139 22.8693 34.9545L19.6583 38.3647C18.8088 39.2669 17.4496 39.2469 16.6226 38.3198Z" fill="#F9F6F6"/>
<path d="M40.3958 11.5025C40.8201 11.5025 41.164 11.1273 41.164 10.6643V9.5375C41.164 9.07447 40.8201 8.69928 40.3958 8.69928C39.9714 8.69928 39.6276 9.07447 39.6276 9.5375V10.6643C39.6276 11.1272 39.9715 11.5025 40.3958 11.5025Z" fill="black"/>
<path d="M48.7537 18.9456C48.3293 18.9456 47.9855 19.3208 47.9855 19.7839C47.9855 20.2469 48.3293 20.6221 48.7537 20.6221H49.7862C50.2106 20.6221 50.5544 20.2469 50.5544 19.7839C50.5544 19.3208 50.2106 18.9456 49.7862 18.9456H48.7537Z" fill="black"/>
<path d="M31.0052 18.9456C30.5808 18.9456 30.237 19.3208 30.237 19.7839C30.237 20.2469 30.5808 20.6221 31.0052 20.6221H32.0379C32.4622 20.6221 32.8061 20.2469 32.8061 19.7839C32.8061 19.3208 32.4622 18.9456 32.0379 18.9456H31.0052Z" fill="black"/>
<path d="M43.7649 45.7204C42.4006 45.7204 41.2906 46.9315 41.2906 48.4201C41.2906 49.9087 42.4006 51.1198 43.7649 51.1198C45.1291 51.1198 46.2391 49.9087 46.2391 48.4201C46.2391 46.9315 45.1291 45.7204 43.7649 45.7204ZM43.7649 49.4434C43.2477 49.4434 42.827 48.9844 42.827 48.4201C42.827 47.8558 43.2477 47.3968 43.7649 47.3968C44.2821 47.3968 44.7027 47.8558 44.7027 48.4201C44.7027 48.9844 44.2821 49.4434 43.7649 49.4434Z" fill="black"/>
<path d="M15.7152 48.4201C15.7152 49.9087 16.8252 51.1198 18.1895 51.1198C19.5539 51.1198 20.6638 49.9087 20.6638 48.4201C20.6638 46.9315 19.5539 45.7204 18.1895 45.7204C16.8252 45.7204 15.7152 46.9314 15.7152 48.4201ZM19.1274 48.4201C19.1274 48.9844 18.7067 49.4434 18.1895 49.4434C17.6724 49.4434 17.2516 48.9844 17.2516 48.4201C17.2516 47.8558 17.6724 47.3968 18.1895 47.3968C18.7067 47.3968 19.1274 47.8558 19.1274 48.4201Z" fill="black"/>
<path d="M23.4051 35.5549C24.2724 34.6339 24.3724 33.0318 23.3872 31.9857L20.1942 28.5943C19.0423 27.3714 17.1932 27.3984 16.0721 28.6551L15.4741 29.3254C15.1782 29.6573 15.1848 30.1879 15.4888 30.5107L18.5667 33.7797L15.4888 37.0486C15.3428 37.2037 15.2592 37.4157 15.2565 37.6379C15.2537 37.8601 15.3321 38.0745 15.4741 38.2339L16.0721 38.9042C17.1969 40.165 19.042 40.1889 20.1942 38.9649L23.4051 35.5549ZM17.1731 37.7351L17.1109 37.6655L20.2039 34.3804C20.3524 34.2227 20.4363 34.006 20.4363 33.7798C20.4363 33.5536 20.3525 33.3369 20.2039 33.1792L17.1109 29.8941L17.1731 29.8245C17.7035 29.23 18.5779 29.2171 19.1226 29.7956L22.3156 33.187C22.6564 33.5489 22.6108 34.059 22.3336 34.3536L19.1226 37.7638C18.5804 38.3395 17.7078 38.3345 17.1731 37.7351Z" fill="black"/>
<path d="M39.6276 19.7838C39.6276 20.2469 39.9714 20.6221 40.3958 20.6221H43.0083C43.4326 20.6221 43.7765 20.2469 43.7765 19.7838C43.7765 19.3208 43.4326 18.9456 43.0083 18.9456H41.164V13.7257C41.164 13.2626 40.8201 12.8875 40.3958 12.8875C39.9714 12.8875 39.6276 13.2626 39.6276 13.7257V19.7838Z" fill="black"/>
<path d="M14.0454 12.6201H27.2729C27.6972 12.6201 28.0411 12.2449 28.0411 11.7819C28.0411 11.3189 27.6972 10.9437 27.2729 10.9437H14.0454C13.6211 10.9437 13.2772 11.3189 13.2772 11.7819C13.2772 12.2449 13.6211 12.6201 14.0454 12.6201Z" fill="black"/>
<path d="M10.839 16.9506H24.5695C24.9938 16.9506 25.3377 16.5754 25.3377 16.1124C25.3377 15.6493 24.9938 15.2741 24.5695 15.2741H10.839C10.4148 15.2741 10.0708 15.6493 10.0708 16.1124C10.0708 16.5754 10.4148 16.9506 10.839 16.9506Z" fill="black"/>
<path d="M18.6942 19.136C18.27 19.136 17.926 19.5111 17.926 19.9742C17.926 20.4372 18.27 20.8124 18.6942 20.8124H25.5266C25.9509 20.8124 26.2948 20.4372 26.2948 19.9742C26.2948 19.5111 25.9509 19.136 25.5266 19.136H18.6942Z" fill="black"/>
<path d="M12.2175 19.136C11.7932 19.136 11.4493 19.5111 11.4493 19.9742C11.4493 20.4372 11.7932 20.8124 12.2175 20.8124H15.6275C16.0517 20.8124 16.3957 20.4372 16.3957 19.9742C16.3957 19.5111 16.0517 19.136 15.6275 19.136H12.2175Z" fill="black"/>
<path d="M1.69056 32.3558H4.50013C4.92438 32.3558 5.26833 31.9806 5.26833 31.5175C5.26833 31.0545 4.92438 30.6793 4.50013 30.6793H1.69056C1.26631 30.6793 0.922363 31.0545 0.922363 31.5175C0.922363 31.9806 1.26631 32.3558 1.69056 32.3558Z" fill="black"/>
<path d="M3.7391 39.7392H1.69056C1.26631 39.7392 0.922363 40.1144 0.922363 40.5774C0.922363 41.0405 1.26631 41.4156 1.69056 41.4156H3.7391C4.16335 41.4156 4.5073 41.0405 4.5073 40.5774C4.5073 40.1144 4.16335 39.7392 3.7391 39.7392Z" fill="black"/>
<path d="M12.7765 32.6411H10.0368C9.61256 32.6411 9.26862 33.0163 9.26862 33.4793C9.26862 33.9423 9.61256 34.3175 10.0368 34.3175H12.7765C13.2008 34.3175 13.5447 33.9423 13.5447 33.4793C13.5447 33.0163 13.2008 32.6411 12.7765 32.6411Z" fill="black"/>
<path d="M47.6299 31.5285C51.1892 28.912 53.3649 24.5028 53.3649 19.7837C53.3649 17.5409 52.8973 15.3947 51.975 13.4052C51.7835 12.9922 51.3213 12.8267 50.9428 13.0355C50.5642 13.2444 50.4124 13.7488 50.604 14.1618C51.4164 15.9146 51.8285 17.8062 51.8285 19.7837C51.8285 24.0278 49.8318 27.9874 46.5803 30.2752L42.1079 24.9351C41.5884 24.3146 40.8485 23.9588 40.0784 23.9588H29.62C29.1841 22.6213 28.9629 21.2194 28.9629 19.7837C28.9629 12.9051 34.0916 7.30907 40.3957 7.30907C43.6658 7.30907 46.7862 8.84289 48.9568 11.5173C49.2379 11.8637 49.7234 11.8961 50.0412 11.589C50.3589 11.2821 50.3884 10.7524 50.107 10.4058C48.9785 9.01523 47.6229 7.89761 46.1289 7.0937V4.25483C46.1289 3.22327 45.3598 2.38405 44.4144 2.38405H36.3771C35.4317 2.38405 34.6626 3.22327 34.6626 4.25483V7.09292C30.3792 9.40618 27.4265 14.2254 27.4265 19.7837C27.4265 21.2125 27.6203 22.6118 28.0019 23.9588H8.41263C7.43271 23.9588 6.62774 24.7854 6.54918 25.8331H3.7391C3.31485 25.8331 2.9709 26.2083 2.9709 26.6713C2.9709 27.1343 3.31485 27.5095 3.7391 27.5095H6.5414V35.6114H1.69056C1.26631 35.6114 0.922363 35.9866 0.922363 36.4496C0.922363 36.9126 1.26631 37.2878 1.69056 37.2878H6.5414V39.7395C6.12052 39.7438 5.78036 40.1171 5.78036 40.5773C5.78036 41.0375 6.12042 41.4108 6.5414 41.4151V47.3443C6.5414 48.2243 7.19754 48.9401 8.00395 48.9401H10.0708V49.5236H7.67403C7.24978 49.5236 6.90583 49.8988 6.90583 50.3619C6.90583 50.8249 7.24978 51.2001 7.67403 51.2001H10.839C11.2633 51.2001 11.6072 50.8249 11.6072 50.3619V48.9401H12.3081C12.5519 52.2487 15.0957 54.8602 18.1896 54.8602C19.2106 54.8602 20.2184 54.5695 21.1041 54.0196C21.4729 53.7906 21.6016 53.2789 21.3918 52.8765C21.1821 52.474 20.7132 52.3338 20.3442 52.5625C19.6897 52.9689 18.9446 53.1837 18.1896 53.1837C15.7822 53.1837 13.8236 51.0467 13.8236 48.4199C13.8236 45.793 15.7822 43.656 18.1896 43.656C20.5969 43.656 22.5555 45.793 22.5555 48.4199C22.5555 49.1361 22.4132 49.8248 22.1326 50.4671C21.95 50.885 22.1125 51.3853 22.4954 51.5844C22.8785 51.7836 23.3368 51.6063 23.5195 51.1886C23.8307 50.4762 24.014 49.7217 24.0708 48.9401H37.8835C38.1273 52.2487 40.671 54.8602 43.7649 54.8602C46.8588 54.8602 49.4025 52.2487 49.6464 48.9401H51.2278C52.4062 48.9401 53.3649 47.894 53.3649 46.6082V39.537C53.3649 38.7881 53.11 38.0712 52.6469 37.5184L47.6299 31.5285ZM36.199 4.25483C36.199 4.14766 36.2789 4.06048 36.3771 4.06048H44.4144C44.5127 4.06048 44.5925 4.14766 44.5925 4.25483V6.39687C43.2548 5.89696 41.8383 5.63275 40.3957 5.63275C38.9276 5.63275 37.5159 5.90076 36.1989 6.39352V4.25483H36.199ZM40.9738 26.0661L48.9682 35.6114H43.2377C42.8134 35.6114 42.4695 35.9866 42.4695 36.4496C42.4695 36.9126 42.8134 37.2878 43.2377 37.2878H50.3723L51.5128 38.6496C51.9778 39.2049 51.7824 39.8074 51.8285 40.4468H51.2363C50.8119 40.4468 50.4681 40.822 50.4681 41.285C50.4681 41.748 50.8119 42.1232 51.2363 42.1232H51.8285V43.3635H47.4138C46.4088 42.4982 45.1417 41.9798 43.765 41.9798C42.3884 41.9798 41.1213 42.4982 40.1163 43.3635H31.7463V25.6354H35.0595V35.6009C35.0595 36.5311 35.753 37.2879 36.6055 37.2879H40.1666C40.5909 37.2879 40.9348 36.9127 40.9348 36.4497C40.9348 35.9867 40.5909 35.6115 40.1666 35.6115H36.6055C36.6002 35.6115 36.5959 35.6067 36.5959 35.6009V25.6354H40.0786C40.4181 25.6354 40.7446 25.7924 40.9738 26.0661ZM37.9597 47.2639H31.7461V45.04H38.7437C38.3635 45.7099 38.0937 46.4612 37.9597 47.2639ZM23.2107 45.04H30.2097V47.2639H23.9947C23.8607 46.4612 23.591 45.7099 23.2107 45.04ZM8.0778 45.04H13.1682C12.788 45.7099 12.5182 46.4612 12.3842 47.2639H8.0778V45.04ZM14.5407 43.3635H8.0778V41.4156H11.4067C11.8309 41.4156 12.1749 41.0404 12.1749 40.5774C12.1749 40.1144 11.8309 39.7392 11.4067 39.7392H8.0778V37.2878H11.4067C11.8309 37.2878 12.1749 36.9126 12.1749 36.4496C12.1749 35.9866 11.8309 35.6114 11.4067 35.6114H8.0778V26.0007C8.0778 25.7992 8.22796 25.6353 8.41263 25.6353H30.2097V43.3634H21.8383C20.8333 42.4981 19.5662 41.9797 18.1896 41.9797C16.813 41.9797 15.5458 42.4982 14.5407 43.3635ZM43.7649 53.184C41.3575 53.184 39.399 51.047 39.399 48.4201C39.399 45.7932 41.3575 43.6562 43.7649 43.6562C46.1724 43.6562 48.1309 45.7932 48.1309 48.4201C48.1309 51.047 46.1724 53.184 43.7649 53.184ZM51.2277 47.2639H49.5701C49.4361 46.4612 49.1663 45.7099 48.7861 45.04H51.8285V46.6084C51.8285 46.9699 51.559 47.2639 51.2277 47.2639Z" fill="black"/>
</g>
<defs>
<clipPath id="clip0_2_280">
<rect width="52.4425" height="57.2222" fill="white" transform="translate(0.922363 0.0111084)"/>
</clipPath>
</defs>
</svg>
