<svg xmlns="http://www.w3.org/2000/svg" viewBox="0 0 79 79" id="help"><defs></defs><g id="Layer_2" data-name="Layer 2"><g id="Layer_1-2" data-name="Layer 1"><path fill="#ffece1" d="M70.8 36a32.93 32.93 0 0 1-33.1 33 33.32 33.32 0 0 1-10.4-1.7 8 8 0 0 0-4.8-3.4 7 7 0 0 0-2.9-.3A33.17 33.17 0 0 1 6.4 25.32c2.3-.5 3.9-1.8 3.8-3.3a2.79 2.79 0 0 0-1.4-2.1 33.06 33.06 0 0 1 58.7 1.7l-.2.2a5.55 5.55 0 0 0-.8 7.8 5.26 5.26 0 0 0 2.8 1.8c.3.1.5.1.8.2h.3a23.21 23.21 0 0 1 .4 4.38z"></path><path fill="#6fbbc4" d="M70.3 36a32.5 32.5 0 0 1-32.5 32.5 32.09 32.09 0 0 1-10.2-1.7 7.5 7.5 0 0 0-4.7-3.3 6.72 6.72 0 0 0-2.8-.3H20A32.56 32.56 0 0 1 7 25.62c2.2-.5 3.8-1.8 3.7-3.3a2.47 2.47 0 0 0-1.4-2A32.55 32.55 0 0 1 67.1 22l-.2.2a5.41 5.41 0 0 0-.8 7.6 5.26 5.26 0 0 0 2.8 1.8c.3.1.5.1.8.2h.3z"></path><ellipse cx="52.13" cy="57.94" fill="#d7f0ee" rx="6" ry="4.6" transform="rotate(-30.83 52.122 57.943)"></ellipse><ellipse cx="52.49" cy="58.4" fill="#1b403d" rx="6" ry="4.4" transform="rotate(-30.83 52.504 58.4)"></ellipse><ellipse cx="52.29" cy="58.12" fill="#1c5955" rx="6" ry="4.4" transform="rotate(-30.83 52.287 58.125)"></ellipse><ellipse cx="51.78" cy="57.22" fill="#2a867f" rx="5.2" ry="3.4" transform="rotate(-30.83 51.774 57.223)"></ellipse><path fill="#5b99a1" d="M69.6 31.82a2.35 2.35 0 0 1-.8-.2 5.45 5.45 0 0 1-3.8-6.7 5.26 5.26 0 0 1 1.8-2.8 33.16 33.16 0 0 0-16.4-16 63 63 0 0 1 7.2 29.8 68.63 68.63 0 0 1-2.1 16.9 4.06 4.06 0 0 1 2.3 1.6c0 .1.1.1.1.2l.1.1.1.1.1.1c1.3 2.2.1 5.3-2.8 7a7.71 7.71 0 0 1-3.6 1.2 19.65 19.65 0 0 1-1.3 2.5 32.1 32.1 0 0 0 19.1-33.8z"></path><ellipse cx="23.96" cy="17.02" fill="#d7f0ee" rx="3.3" ry="2.5" transform="rotate(-32.21 23.956 17.029)"></ellipse><ellipse cx="23.81" cy="16.82" fill="#1b403d" rx="3.3" ry="2.4" transform="rotate(-32.21 23.81 16.818)"></ellipse><ellipse cx="23.88" cy="16.93" fill="#1c5955" rx="3.3" ry="2.4" transform="rotate(-32.21 23.872 16.93)"></ellipse><ellipse cx="24.2" cy="17.42" fill="#2a867f" rx="2.9" ry="1.8" transform="rotate(-32.21 24.2 17.418)"></ellipse><ellipse cx="14.28" cy="48.65" fill="#d7f0ee" rx="3.5" ry="7.2" transform="rotate(-37.86 14.275 48.644)"></ellipse><ellipse cx="13.98" cy="48.91" fill="#1b403d" rx="3.3" ry="7.2" transform="rotate(-37.86 13.975 48.9)"></ellipse><ellipse cx="14.2" cy="48.79" fill="#1c5955" rx="3.3" ry="7.2" transform="rotate(-37.86 14.196 48.78)"></ellipse><ellipse cx="14.78" cy="48.29" fill="#2a867f" rx="2.5" ry="6.3" transform="rotate(-37.86 14.785 48.298)"></ellipse><ellipse cx="37.6" cy="50.92" fill="#fff" rx="3.2" ry="3.1"></ellipse><ellipse cx="37.9" cy="51.92" fill="#1b403d" rx="3.2" ry="3.1"></ellipse><ellipse cx="37.7" cy="51.52" fill="#1c5955" rx="3.2" ry="3.1"></ellipse><ellipse cx="37.6" cy="51.12" fill="#2a867f" rx="3.2" ry="3.1"></ellipse><path fill="#fff" d="M37.5 44.92a2.61 2.61 0 0 1-2.7-2.6V36a2.73 2.73 0 0 1 2.7-2.6 5.86 5.86 0 1 0-.5-11.7 6 6 0 0 0-5.7 5.8 2.7 2.7 0 1 1-5.4 0 11.64 11.64 0 0 1 23.2.1 11.31 11.31 0 0 1-8.9 10.8v3.9a2.67 2.67 0 0 1-2.7 2.62z"></path><path fill="#1b403d" d="M37.7 46.62A2.76 2.76 0 0 1 34.9 44v-6.2a2.76 2.76 0 0 1 2.8-2.6 5.81 5.81 0 1 0-6.2-5.8 2.81 2.81 0 0 1-5.6 0c0-6.1 5.3-11 11.8-10.9s11.8 5 11.8 11a11.2 11.2 0 0 1-9 10.6V44a2.76 2.76 0 0 1-2.8 2.62z"></path><path fill="#1c5955" d="M37.6 45.72a2.61 2.61 0 0 1-2.7-2.6V37a2.69 2.69 0 0 1 2.8-2.6 5.76 5.76 0 1 0-6.1-5.8 2.8 2.8 0 0 1-5.6 0c0-6 5.3-10.9 11.7-10.9s11.6 5 11.6 11a11.1 11.1 0 0 1-8.9 10.6v3.9a2.89 2.89 0 0 1-2.8 2.52z"></path><path fill="#2a867f" d="M37.5 45.22a2.61 2.61 0 0 1-2.7-2.6v-6.3a2.73 2.73 0 0 1 2.7-2.6A5.86 5.86 0 1 0 37 22a6 6 0 0 0-5.7 5.8 2.7 2.7 0 1 1-5.4 0 11.64 11.64 0 0 1 23.2.1 11.21 11.21 0 0 1-8.8 10.7v3.9a2.69 2.69 0 0 1-2.7 2.7z"></path></g></g></svg>