<svg width="37" height="47" viewBox="0 0 37 47" fill="none" xmlns="http://www.w3.org/2000/svg">
<path d="M36.3117 34.1701C36.3117 31.7042 34.6937 29.5538 32.2854 28.8186L23.1968 26.0443V23.596C25.0083 22.4387 26.364 20.6623 26.9583 18.5768C28.9887 18.3397 30.5739 16.6659 30.5739 14.6196C30.5739 12.6734 29.1444 11.0508 27.2575 10.692C27.1026 8.84038 26.3649 7.1481 25.2165 5.797C25.4985 5.31566 25.6558 4.77106 25.6558 4.20803C25.6558 2.44127 24.1853 1.00447 22.3771 1.00447C21.8312 1.00447 21.2951 1.14142 20.8197 1.39531C20.2082 0.657687 19.2779 0.203583 18.2787 0.203583C17.2795 0.203583 16.3492 0.657687 15.7377 1.39531C15.2623 1.14142 14.7262 1.00447 14.1803 1.00447C12.3721 1.00447 10.9016 2.44127 10.9016 4.20803C10.9016 4.77106 11.059 5.31566 11.3409 5.797C10.1926 7.1489 9.45485 8.84118 9.29993 10.692C7.41302 11.0508 5.9835 12.6734 5.9835 14.6196C5.9835 16.6659 7.56876 18.3397 9.59911 18.576C10.1926 20.6623 11.5491 22.4379 13.3606 23.5952V26.0435L4.272 28.8186C1.86378 29.5538 0.245728 31.705 0.245728 34.1701V40.2481H1.88509V46.6552H34.6723V40.2481H36.3117V34.1701ZM28.5452 36.1948C29.3256 36.9572 29.7543 37.9695 29.7543 39.0467C29.7543 40.1239 29.3256 41.1363 28.5452 41.8987L27.2952 43.1201V45.0534H9.26222V43.1201L8.01221 41.8987C7.23187 41.1363 6.80318 40.1239 6.80318 39.0467C6.80318 37.9695 7.23187 36.9572 8.01221 36.1948C8.81795 35.4075 9.26222 34.3599 9.26222 33.2459V28.9731L10.9016 28.4726V34.6418H25.6558V28.4734L27.2952 28.9739V33.2467C27.2952 34.3599 27.7395 35.4075 28.5452 36.1948ZM22.3771 8.21248V9.81426H20.7378V8.21248H19.0984V9.81426H17.459V8.21248H15.8197V9.81426H14.1803V8.21248H12.5409V9.81426H11.0918C11.8401 6.6091 14.7754 4.20803 18.2787 4.20803C21.782 4.20803 24.7173 6.6091 25.4657 9.81426H24.0165V8.21248H22.3771ZM28.9346 14.6196C28.9346 15.6744 28.2305 16.5634 27.2608 16.8853C27.278 16.6651 27.2952 16.4456 27.2952 16.2214V12.3643C28.2469 12.6959 28.9346 13.5768 28.9346 14.6196ZM24.0165 4.20803C24.0165 4.33698 23.9952 4.46352 23.964 4.58685C23.1525 3.94053 22.2222 3.43597 21.2132 3.0956C21.5271 2.78165 21.937 2.60625 22.3771 2.60625C23.2812 2.60625 24.0165 3.32465 24.0165 4.20803ZM18.2787 1.80536C18.9082 1.80536 19.4697 2.17778 19.7386 2.73279C19.2623 2.65591 18.7771 2.60625 18.2787 2.60625C17.7803 2.60625 17.2951 2.65591 16.8189 2.73279C17.0877 2.17778 17.6492 1.80536 18.2787 1.80536ZM14.1803 2.60625C14.6205 2.60625 15.0303 2.78165 15.3434 3.09479C14.3344 3.43517 13.4041 3.94053 12.5926 4.58605C12.5623 4.46272 12.5409 4.33698 12.5409 4.20803C12.5409 3.32465 13.2762 2.60625 14.1803 2.60625ZM7.62286 14.6196C7.62286 13.5768 8.31057 12.6959 9.26222 12.3643V16.2214C9.26222 16.4456 9.27943 16.6651 9.29665 16.8853C8.32696 16.5634 7.62286 15.6744 7.62286 14.6196ZM10.9016 16.2214V11.416H25.6558V16.2214C25.6558 20.1954 22.3468 23.4294 18.2787 23.4294C14.2106 23.4294 10.9016 20.1954 10.9016 16.2214ZM18.2787 25.0312C19.4361 25.0312 20.5394 24.8093 21.5574 24.4193V26.3014L18.2787 29.5049L15 26.3014V24.4193C16.018 24.8093 17.1213 25.0312 18.2787 25.0312ZM13.9516 27.542L18.2787 31.7699L22.6058 27.542L24.0165 27.9728V33.0401H12.5409V27.9728L13.9516 27.542ZM1.88509 34.1701C1.88509 32.409 3.04084 30.8729 4.76053 30.3483L7.62286 29.4737V33.2459C7.62286 33.9315 7.34909 34.577 6.85318 35.0623C5.86136 36.0314 5.28103 37.292 5.18431 38.6463H1.88509V34.1701ZM3.52445 40.2481H5.29824C5.52939 41.294 6.05973 42.2559 6.85236 43.0312L7.62286 43.7832V45.0534H3.52445V40.2481ZM33.033 45.0534H28.9346V43.7832L29.7043 43.0312C30.4977 42.2567 31.0272 41.2948 31.2584 40.2481H33.033V45.0534ZM34.6723 38.6463H31.3739C31.2772 37.292 30.6969 36.0314 29.7051 35.0623C29.2083 34.577 28.9346 33.9323 28.9346 33.2459V29.4737L31.7969 30.3475C33.5166 30.8729 34.6723 32.409 34.6723 34.1701V38.6463Z" fill="black"/>
<path d="M22.3771 14.6196C22.8298 14.6196 23.1967 14.261 23.1967 13.8187C23.1967 13.3764 22.8298 13.0178 22.3771 13.0178C21.9244 13.0178 21.5574 13.3764 21.5574 13.8187C21.5574 14.261 21.9244 14.6196 22.3771 14.6196Z" fill="black"/>
<path d="M14.1803 14.6196C14.633 14.6196 15 14.261 15 13.8187C15 13.3764 14.633 13.0178 14.1803 13.0178C13.7276 13.0178 13.3607 13.3764 13.3607 13.8187C13.3607 14.261 13.7276 14.6196 14.1803 14.6196Z" fill="black"/>
<path d="M21.5574 17.8232H19.918C19.918 18.7065 19.1828 19.4249 18.2787 19.4249C17.3746 19.4249 16.6393 18.7065 16.6393 17.8232H14.9999C14.9999 19.5899 16.4704 21.0267 18.2787 21.0267C20.0869 21.0267 21.5574 19.5899 21.5574 17.8232Z" fill="black"/>
<path d="M20.7377 39.4471H10.9016V41.0489H20.7377V39.4471Z" fill="black"/>
<path d="M25.6559 39.4471H22.3771V41.0489H25.6559V39.4471Z" fill="black"/>
</svg>
