<svg width="31" height="49" viewBox="0 0 31 49" fill="none" xmlns="http://www.w3.org/2000/svg">
<path d="M29.5349 7.63794H20.4597V15.3966H29.5349V7.63794Z" fill="white"/>
<path d="M15.6196 37.8966C11.2828 37.8966 7.75439 33.3717 7.75439 27.8104C7.75439 22.249 11.2828 17.7242 15.6196 17.7242C19.9563 17.7242 23.4848 22.249 23.4848 27.8104C23.4848 33.3717 19.9563 37.8966 15.6196 37.8966Z" fill="white"/>
<path d="M30.14 43.2019V7.63794L28.7974 0.655182H2.4418L1.09928 7.54251V43.2019L0.494263 45.5295V48.7586H30.745V45.5295L30.14 43.2019ZM2.30931 39.4483V16.1724H28.9299V39.4483H26.5099V41H28.9299V42.5517H2.30931V41H25.2999V39.4483H2.30931ZM8.96447 8.4138V14.6207H2.30931V8.4138H8.96447ZM28.9299 14.6207H10.1745V8.4138H28.9299V14.6207ZM27.8524 2.20691L28.7599 6.86208H2.47932L3.38684 2.20691H27.8524ZM29.535 47.2069H1.70429V45.7809L2.14051 44.1035H29.0994L29.535 45.7809V47.2069Z" fill="black"/>
<path d="M15.6196 20.8276C12.6175 20.8276 10.1744 23.9598 10.1744 27.8104C10.1744 31.661 12.6175 34.7931 15.6196 34.7931C17.4352 34.7931 19.1268 33.6092 20.1336 31.6897H23.4848V30.1379H20.4597V25.4828H23.4848V23.9311H20.1336C19.1268 22.0116 17.4352 20.8276 15.6196 20.8276ZM15.6196 33.2414C13.2842 33.2414 11.3845 30.8044 11.3845 27.8104C11.3845 24.8163 13.2842 22.3793 15.6196 22.3793C17.1037 22.3793 18.4861 23.3918 19.2497 25.0219V30.5996C18.4861 32.2289 17.1037 33.2414 15.6196 33.2414Z" fill="black"/>
<path d="M12.5946 12.2931H13.916C14.1664 13.1939 14.8319 13.8448 15.6197 13.8448C16.4074 13.8448 17.0729 13.1939 17.3234 12.2931H18.6448V10.7414H17.3234C17.0729 9.84062 16.4074 9.18967 15.6197 9.18967C14.8319 9.18967 14.1664 9.84062 13.916 10.7414H12.5946V12.2931ZM15.6197 10.7414C15.953 10.7414 16.2247 11.089 16.2247 11.5173C16.2247 11.9455 15.953 12.2931 15.6197 12.2931C15.2863 12.2931 15.0147 11.9455 15.0147 11.5173C15.0147 11.089 15.2863 10.7414 15.6197 10.7414Z" fill="black"/>
<path d="M22.8798 10.7414H21.6698V12.2931H22.8798V10.7414Z" fill="black"/>
<path d="M25.2999 10.7414H24.0898V12.2931H25.2999V10.7414Z" fill="black"/>
<path d="M27.7199 10.7414H26.5099V12.2931H27.7199V10.7414Z" fill="black"/>
<path d="M11.9895 3.75864H4.72937V5.31036H11.9895V3.75864Z" fill="black"/>
<path d="M14.4096 3.75864H13.1996V5.31036H14.4096V3.75864Z" fill="black"/>
<path d="M7.75439 10.7414H3.51929V12.2931H7.75439V10.7414Z" fill="black"/>
</svg>
