<svg width="39" height="50" viewBox="0 0 39 50" fill="none" xmlns="http://www.w3.org/2000/svg">
<g clip-path="url(#clip0_2_87)">
<rect width="38.7209" height="49.6552" fill="#F8F4F4"/>
<path d="M19.3538 6.00982L18.0585 5.07956L16.7619 6.00982L15.466 5.07956L14.1706 6.00982L12.8753 5.07956L11.58 6.00982L9.98938 4.8662L10.5811 3.51309L11.58 4.23077L12.8753 3.30051L14.1706 4.23077L15.466 3.30051L16.7619 4.23077L18.0585 3.30051L19.3538 4.23077L20.6485 3.30051L21.9445 4.23154L23.241 3.30128L24.5388 4.23154L25.8359 3.30128L27.1361 4.23154L28.141 3.51232L28.7303 4.86697L27.1361 6.00904L25.8359 5.07878L24.5388 6.00904L23.241 5.07878L21.9445 6.00904L20.6485 5.07956L19.3538 6.00982Z" fill="white"/>
<path d="M10.0232 9.98223L8.17432 8.65241L8.76602 7.2993L10.0232 8.20318L11.5781 7.08672L13.1324 8.20318L14.6873 7.08672L16.2422 8.20318L17.7977 7.08672L19.3532 8.20318L20.9062 7.08672L22.4611 8.20318L24.0172 7.08749L25.5745 8.20396L27.1318 7.08749L28.691 8.20396L29.956 7.29853L30.5453 8.65318L28.691 9.98146L27.1318 8.86499L25.5745 9.98146L24.0172 8.86499L22.4611 9.98223L20.9062 8.86577L19.3532 9.98223L17.7977 8.86577L16.2422 9.98223L14.6873 8.86577L13.1324 9.98223L11.5781 8.86577L10.0232 9.98223Z" fill="white"/>
<path d="M34.4858 31.0345H37.4764L33.5868 24.0517H32.6708V20.1724H29.6457V12.4138H32.4735L27.5874 0.775864H11.1335L6.24737 12.4138H9.07521V20.1724H6.05013V24.0517H5.13354L1.2439 31.0345H4.23509V47.3276H3.02506V48.8793H35.6959V47.3276H34.4858V31.0345ZM31.4607 24.0517H30.2507V21.7241H31.4607V24.0517ZM27.8307 21.7241H29.0407V24.0517H27.8307V21.7241ZM11.8571 2.32759H26.8645L30.4486 10.8621H8.27296L11.8571 2.32759ZM10.8903 24.0517H9.68022V21.7241H10.8903V24.0517ZM7.26016 21.7241H8.47019V24.0517H7.26016V21.7241ZM5.44512 31.0345H7.86518V29.4828H3.59559L5.7561 25.6034H11.4953V24.8276H12.1003V21.7241H15.7304V20.1724H10.2852V12.4138H28.4357V20.1724H22.9905V21.7241H26.6206V24.8276H27.2256V25.6034H32.9642L35.1247 29.4828H30.8557V31.0345H33.2758V47.3276H32.0658V45H30.8557V47.3276H26.0156V45H24.8056V47.3276H22.9905V34.9138H15.7304V47.3276H13.9153V45H12.7053V47.3276H7.86518V45H6.65515V47.3276H5.44512V31.0345ZM21.7805 47.3276H16.9404V36.4655H21.7805V47.3276Z" fill="#0B7E17"/>
<path d="M19.3604 33.3621C21.0284 33.3621 22.3855 31.6218 22.3855 29.4828C22.3855 27.3437 21.0284 25.6035 19.3604 25.6035C17.6924 25.6035 16.3353 27.3437 16.3353 29.4828C16.3353 31.6218 17.6924 33.3621 19.3604 33.3621ZM17.6567 30.2586H18.7554V31.6676C18.2429 31.4333 17.8394 30.9158 17.6567 30.2586ZM19.9654 31.6676V30.2586H21.0641C20.8814 30.9158 20.4779 31.4333 19.9654 31.6676ZM21.0641 28.7069H19.9654V27.2979C20.4779 27.5322 20.8814 28.0497 21.0641 28.7069ZM18.7554 27.2979V28.7069H17.6567C17.8394 28.0497 18.2429 27.5322 18.7554 27.2979Z" fill="#0B7E17"/>
<path d="M10.8902 30.2586H9.68018V40.3448H10.8902V30.2586Z" fill="#0B7E17"/>
<path d="M29.0407 30.2586H27.8307V40.3448H29.0407V30.2586Z" fill="#0B7E17"/>
<path d="M19.3604 41.1207H18.1504V42.6724H19.3604V41.1207Z" fill="#0B7E17"/>
<path d="M27.2257 13.9655H23.5956V18.6207H27.2257V13.9655ZM26.0156 17.069H24.8056V15.5172H26.0156V17.069Z" fill="#0B7E17"/>
<path d="M11.4952 18.6207H15.1253V13.9655H11.4952V18.6207ZM12.7053 15.5172H13.9153V17.069H12.7053V15.5172Z" fill="#0B7E17"/>
<path d="M38.1159 47.3276H36.9059V48.8793H38.1159V47.3276Z" fill="#0B7E17"/>
<path d="M1.81501 47.3276H0.60498V48.8793H1.81501V47.3276Z" fill="#0B7E17"/>
<path d="M12.7053 45.7759H7.86521C6.86452 45.7759 6.05017 44.7316 6.05017 43.4483C6.05017 42.352 6.6443 41.4295 7.4417 41.1843C7.77507 40.2222 8.52952 39.569 9.37775 39.569C9.69417 39.569 10.0021 39.6597 10.2853 39.8359C10.5684 39.6597 10.8764 39.569 11.1928 39.569C12.041 39.569 12.7955 40.2222 13.1288 41.1843C13.9263 41.4295 14.5204 42.352 14.5204 43.4483C14.5204 44.7316 13.706 45.7759 12.7053 45.7759Z" fill="white"/>
<path d="M30.8557 45.7759H26.0156C25.0149 45.7759 24.2006 44.7316 24.2006 43.4483C24.2006 42.352 24.7947 41.4295 25.5921 41.1843C25.9255 40.2222 26.6799 39.569 27.5281 39.569C27.8446 39.569 28.1525 39.6597 28.4357 39.8359C28.7188 39.6597 29.0268 39.569 29.3432 39.569C30.1914 39.569 30.9459 40.2222 31.2792 41.1843C32.0766 41.4295 32.6708 42.352 32.6708 43.4483C32.6708 44.7316 31.8564 45.7759 30.8557 45.7759Z" fill="white"/>
<path d="M29.6366 31.8104H29.4472C29.0552 31.8104 28.6662 31.6435 28.3522 31.3417L19.3604 22.694L10.3681 31.3417C10.0547 31.6435 9.66628 31.8104 9.27362 31.8104H9.08425C8.07872 31.8104 7.26013 30.7606 7.26013 29.4711C7.26013 28.7542 7.52392 28.0645 7.96437 27.6246L17.9066 17.7091C18.7336 16.8836 19.9872 16.8836 20.8149 17.7091L30.7577 27.6254C31.1969 28.0645 31.4607 28.755 31.4607 29.4711C31.4607 30.7606 30.6421 31.8104 29.6366 31.8104Z" fill="white"/>
</g>
<defs>
<clipPath id="clip0_2_87">
<rect width="38.7209" height="49.6552" fill="white"/>
</clipPath>
</defs>
</svg>
