<svg width="53" height="58" viewBox="0 0 53 58" fill="none" xmlns="http://www.w3.org/2000/svg">
<g clip-path="url(#clip0_2_318)">
<path d="M45.9187 30.4753L43.7463 28.1056L46.3292 25.2886C46.929 24.6344 47.9012 24.6344 48.5009 25.2887C49.1009 25.9432 49.1009 27.0046 48.5008 27.6592L45.9187 30.4753Z" fill="#B5ADB6"/>
<path d="M15.7854 39.8412L13.6137 42.2116L11.0319 39.3933C10.4324 38.7388 10.4324 37.6781 11.032 37.0237C11.6318 36.369 12.6047 36.369 13.2045 37.0238L15.7854 39.8412Z" fill="#B5ADB6"/>
<path d="M37.6129 46.2089H29.1693V42.9911C29.1693 42.5007 29.5336 42.1033 29.983 42.1033H36.7992C37.2486 42.1033 37.6129 42.5008 37.6129 42.9911V46.2089Z" fill="#B5ADB6"/>
<path d="M52.0645 47.1001C50.4061 40.8895 48.7477 34.6787 47.0893 28.4681C46.7658 27.2565 45.71 26.4582 44.5562 26.55C38.9869 26.9936 31.6073 28.4302 23.8197 32.5511C20.7912 34.1537 18.1632 35.9176 15.9175 37.6561C11.4855 41.3071 7.77903 45.9017 5.02283 51.1612L4.24541 52.6448L3.21643 54.3213L46.5495 52.6448L47.1416 51.2628C47.8461 49.6179 49.3601 48.5667 51.0247 48.5667C51.7277 48.5667 52.2414 47.8423 52.0645 47.1001ZM43.4472 44.8377L28.2621 45.9268C26.1334 46.0795 24.3299 44.2373 24.3299 41.9105V41.9104C24.3299 40.4477 25.0562 39.0992 26.2293 38.3906C27.951 37.3505 29.9021 36.3064 32.0795 35.3437C35.3266 33.908 38.354 32.9727 40.9921 32.3543C41.8563 32.1517 42.7119 32.7325 42.9209 33.6695L44.9221 42.6467C45.1608 43.7182 44.4559 44.7654 43.4472 44.8377Z" fill="#FEE97D"/>
<path d="M52.0646 47.1001C50.4062 40.8895 48.7478 34.6787 47.0894 28.4681C46.7668 27.2597 45.7154 26.4579 44.5649 26.5494C44.365 26.5652 44.1621 26.5828 43.9574 26.6013C43.9788 26.6637 43.9993 26.7267 44.0166 26.7917C45.675 33.0023 47.3334 39.213 48.9918 45.4236C49.1684 46.165 48.6562 46.8884 47.9546 46.8902C46.3233 46.8944 44.8182 47.8368 44.1274 49.4493C43.7304 50.376 42.8777 50.9682 41.9402 50.9682H5.1269C5.09269 51.0328 5.05684 51.0962 5.02283 51.1611L4.24541 52.6446L3.21643 54.321L46.5495 52.6446L47.2001 51.1257C47.8909 49.5132 49.396 48.5709 51.0273 48.5666C51.729 48.5648 52.2411 47.8414 52.0646 47.1001Z" fill="#FEDF30"/>
<path d="M46.82 56.5284H1.19348C1.19348 54.3835 2.78704 52.6447 4.75281 52.6447H46.8201C47.803 52.6447 48.5998 53.5141 48.5998 54.5866C48.5997 55.659 47.8029 56.5284 46.82 56.5284Z" fill="#B5ADB6"/>
<path d="M46.82 52.6447H43.7472C44.7301 52.6447 45.5269 53.5141 45.5269 54.5866C45.5269 55.659 44.7301 56.5284 43.7472 56.5284H46.82C47.8029 56.5284 48.5997 55.659 48.5997 54.5866C48.5997 53.5141 47.8029 52.6447 46.82 52.6447Z" fill="#A79BA7"/>
<path d="M27.5223 45.899C27.5222 45.899 27.522 45.8989 27.5219 45.8989C25.7316 45.6354 24.3299 43.9618 24.3299 41.9106V41.9105C24.3299 40.4478 25.0562 39.0994 26.2293 38.3907C27.9511 37.3506 29.9021 36.3065 32.0795 35.3437C35.3266 33.908 38.3542 32.9727 40.9922 32.3544C41.4102 32.2564 41.8253 32.343 42.1671 32.5631C42.1675 32.563 42.168 32.5628 42.1684 32.5627C40.8841 30.7249 39.8197 30.5187 39.3307 30.506C39.0828 30.4995 38.6952 30.5607 37.9194 30.678C35.8083 30.9968 34.7205 31.1409 29.0067 33.6673C26.8293 34.6301 24.8783 35.6742 23.1565 36.7142C21.9833 37.4228 21.2571 38.7713 21.2571 40.2341C21.3685 40.948 21.6403 42.0456 22.3689 43.1133C24.1337 45.6991 27.0564 45.8785 27.5223 45.899Z" fill="#FEDF30"/>
<path d="M52.8678 18.4589C52.8678 16.9054 52.3135 15.4457 51.3076 14.3494C50.3022 13.251 48.9644 12.6462 47.5407 12.6462H39.2472C36.5119 12.6462 34.2867 10.218 34.2867 7.23351C34.2867 5.78753 34.8026 4.42817 35.7395 3.40599C36.6761 2.38382 37.9219 1.82087 39.2471 1.82087H52.0996C52.5239 1.82087 52.8678 1.44557 52.8678 0.982656C52.8678 0.519737 52.5239 0.14444 52.0996 0.14444H39.2471C37.5115 0.14444 35.8799 0.881735 34.653 2.22065C33.426 3.55944 32.7502 5.3397 32.7502 7.23351C32.7502 11.1424 35.6647 14.3226 39.2471 14.3226H47.5406C48.5536 14.3226 49.5054 14.7529 50.221 15.5349C50.9371 16.3152 51.3314 17.3536 51.3314 18.4589C51.3314 19.4242 51.0202 20.3638 50.455 21.1048L48.1703 24.1024C47.3628 23.7979 46.4302 23.9938 45.7856 24.696L44.8578 25.7084C42.7765 25.6614 40.4433 26.1487 38.4233 26.5384C38.0055 26.619 37.7267 27.054 37.8006 27.5097C37.8745 27.9656 38.2731 28.2696 38.6908 28.1891C40.631 27.8147 42.6232 27.5445 44.612 27.3861C45.3988 27.3229 46.1313 27.8771 46.3517 28.7027C46.5389 29.4034 51.1686 46.6033 51.3228 47.3195C51.3738 47.5563 51.2472 47.7285 51.0245 47.7285C48.6907 47.7285 46.8207 49.4787 46.0605 51.8065H13.246C12.8217 51.8065 12.4778 52.1817 12.4778 52.6447C12.4778 53.1077 12.8217 53.4829 13.246 53.4829H46.8201C47.3778 53.4829 47.8316 53.978 47.8316 54.5866C47.8316 55.1951 47.3777 55.6902 46.82 55.6902H2.06914C2.40356 54.4171 3.48007 53.4829 4.75272 53.4829H10.173C10.5973 53.4829 10.9412 53.1077 10.9412 52.6447C10.9412 52.1817 10.5973 51.8065 10.173 51.8065H5.56958C11.9674 39.3341 23.1771 32.0216 35.7627 28.8409C36.176 28.7364 36.4335 28.2863 36.3378 27.8352C36.2421 27.3842 35.8293 27.1033 35.416 27.2078C28.079 29.0629 20.7083 32.4663 14.7798 37.5576L13.7483 36.4322C12.8638 35.454 11.3762 35.4623 10.4884 36.431C9.60437 37.3958 9.59444 39.0201 10.4884 39.9859L11.3131 40.8857C8.29485 44.1222 5.77156 47.8507 3.72917 51.9412C1.83561 52.4443 0.425293 54.3095 0.425293 56.5284C0.425293 56.9915 0.769242 57.3667 1.19349 57.3667H46.82C48.2249 57.3667 49.3679 56.1195 49.3679 54.5866C49.3679 53.3851 48.6658 52.3595 47.6856 51.9719C48.2247 50.455 49.5194 49.4048 51.0245 49.4048C52.2007 49.4048 53.104 48.1306 52.8079 46.8891C52.8061 46.8811 52.804 46.8732 52.802 46.8655L48.105 29.2751L49.0435 28.2518C49.7973 27.4356 49.9289 26.118 49.371 25.1491L51.6361 22.177C52.4304 21.1356 52.8678 19.8152 52.8678 18.4589ZM11.5749 37.6164C11.7203 37.4576 11.9134 37.3702 12.1184 37.3702C12.3232 37.3702 12.5155 37.4572 12.6609 37.6165L13.5842 38.6239C13.1924 38.9864 12.8076 39.3561 12.4294 39.7328L11.5748 38.8003C11.2757 38.4739 11.2757 37.9428 11.5749 37.6164ZM47.9574 27.0663L47.5491 27.5114C47.2934 27.0128 46.9308 26.5946 46.501 26.2864L46.8717 25.8819C47.1714 25.5556 47.6583 25.5554 47.9572 25.8815C48.1027 26.0403 48.1828 26.2505 48.1828 26.4735C48.1828 26.697 48.1027 26.9077 47.9574 27.0663ZM25.8573 37.6573C24.4413 38.5126 23.5617 40.1423 23.5617 41.9105C23.5617 43.2502 24.0757 44.544 24.9722 45.4599C25.7984 46.304 26.8966 46.7737 28.0231 46.7736C28.1194 46.7736 28.2159 46.7703 28.3125 46.7632L43.4977 45.6741C44.2056 45.6234 44.8523 45.2364 45.2719 44.6126C45.6915 43.9891 45.836 43.2002 45.6685 42.4486L43.6673 33.4716C43.3583 32.0853 42.1122 31.2349 40.8308 31.5349C37.7484 32.2575 34.707 33.2777 31.791 34.567C29.7663 35.4622 27.7699 36.5019 25.8573 37.6573ZM36.8442 44.4713L29.9375 44.9668V42.9907C29.9375 42.9641 29.9582 42.9415 29.9826 42.9415H36.7991C36.824 42.9415 36.8442 42.9635 36.8442 42.9907V44.4713ZM41.1534 33.1738C41.2162 33.1591 41.2786 33.1521 41.3401 33.1521C41.7308 33.1521 42.0786 33.438 42.1744 33.8677L44.1756 42.8447C44.2365 43.1181 44.186 43.3936 44.0334 43.6204C43.8806 43.8475 43.6545 43.9827 43.3968 44.0012L38.3806 44.361V42.9907C38.3806 42.0392 37.6712 41.2651 36.7991 41.2651H29.9826C29.1105 41.2651 28.4011 42.0393 28.4011 42.9907V45.077L28.2116 45.0906C27.3966 45.1485 26.6187 44.8456 26.0223 44.2362C25.4262 43.6272 25.098 42.8013 25.098 41.9105C25.098 40.7519 25.674 39.6841 26.6013 39.1239C28.4601 38.0011 30.4003 36.9906 32.368 36.1206C35.2018 34.8676 38.1577 33.876 41.1534 33.1738Z" fill="black"/>
</g>
<defs>
<clipPath id="clip0_2_318">
<rect width="52.4425" height="57.2222" fill="white" transform="translate(0.425293 0.14444)"/>
</clipPath>
</defs>
</svg>
