<svg xmlns="http://www.w3.org/2000/svg" width="32" height="32" id="location"><g transform="translate(-504 -1569.321)"><path fill="none" stroke="#2b4255" stroke-dasharray="2 1" stroke-dashoffset="1.1" d="m508.423 1597.84 5.077-1.458 3.763-4.489 6.778-.022-.082-7.133 6.51-3.91"></path><path fill="#f05542" d="M534 1575.266c0 1.869-3.5 5.616-3.5 5.616s-3.5-3.747-3.5-5.616c0-1.869 1.567-3.384 3.5-3.384s3.5 1.515 3.5 3.384zm-22 17c0 1.869-3.5 5.616-3.5 5.616s-3.5-3.747-3.5-5.616c0-1.869 1.567-3.384 3.5-3.384s3.5 1.515 3.5 3.384z"></path><circle cx="530.5" cy="1575.138" r="1" fill="#4bbfeb"></circle><circle cx="508.5" cy="1592.138" r="1" fill="#4bbfeb"></circle></g></svg>