<svg xmlns="http://www.w3.org/2000/svg" viewBox="0 0 32 32" id="password"><path fill="#38004d" d="M21 6V5a5 5 0 0 0-10 0v1a3 3 0 0 0-3 3v8a3 3 0 0 0 3 3h10a3 3 0 0 0 3-3V9a3 3 0 0 0-3-3zm-8-1a3 3 0 0 1 6 0v1h-6zm9 12a1 1 0 0 1-1 1H11a1 1 0 0 1-1-1V9a1 1 0 0 1 1-1h10a1 1 0 0 1 1 1zm2 15H14a1 1 0 0 1 0-2h10a3 3 0 0 0 0-6H8a3 3 0 0 0 0 6h2a1 1 0 0 1 0 2H8a5 5 0 0 1 0-10h16a5 5 0 0 1 0 10z"></path><path fill="#9f85ec" d="M16 28a1 1 0 1 1 1-1 1 1 0 0 1-1 1zm-4 0a1 1 0 1 1 1-1 1 1 0 0 1-1 1zm-4 0a1 1 0 1 1 1-1 1 1 0 0 1-1 1zm16 0a1 1 0 1 1 1-1 1 1 0 0 1-1 1zm-4 0a1 1 0 1 1 1-1 1 1 0 0 1-1 1zm-4-13a1 1 0 0 1-1-1v-2a1 1 0 0 1 2 0v2a1 1 0 0 1-1 1z"></path></svg>