<svg xmlns="http://www.w3.org/2000/svg" viewBox="0 0 64 64" id="password"><path fill="#546e7a" d="M21.83 36.26a1.5 1.5 0 0 1-1.5-1.5V20.07a1.5 1.5 0 0 1 1.5-1.5H33.5a1.5 1.5 0 0 1 0 3H23.33v13.19a1.5 1.5 0 0 1-1.5 1.5zm20.34 0H26.41a1.5 1.5 0 0 1 0-3h14.26V21.57H39a1.5 1.5 0 0 1 0-3h3.13a1.5 1.5 0 0 1 1.5 1.5v14.69a1.5 1.5 0 0 1-1.46 1.5z"></path><path fill="#546e7a" d="M39 21.57a1.5 1.5 0 0 1-1.5-1.5v-2.82a5.54 5.54 0 0 0-11.08 0v2.82a1.5 1.5 0 0 1-3 0v-2.82a8.54 8.54 0 0 1 17.08 0v2.82a1.5 1.5 0 0 1-1.5 1.5Z"></path><path fill="#ef5350" d="M14.21 49.92a1.49 1.49 0 0 1-1.07-.44l-4.39-4.39a1.51 1.51 0 0 1 0-2.12 1.49 1.49 0 0 1 2.12 0l4.4 4.39a1.51 1.51 0 0 1 0 2.12 1.48 1.48 0 0 1-1.06.44Z"></path><path fill="#ef5350" d="M9.81 49.92a1.48 1.48 0 0 1-1.06-.44 1.51 1.51 0 0 1 0-2.12L13.14 43a1.5 1.5 0 0 1 2.13 2.12l-4.4 4.39a1.45 1.45 0 0 1-1.06.41zm5.36 5.37H8.85a1.5 1.5 0 0 1 0-3h6.32a1.5 1.5 0 1 1 0 3zm12.36-5.37a1.48 1.48 0 0 1-1.06-.44l-4.39-4.39A1.5 1.5 0 0 1 24.2 43l4.39 4.39a1.49 1.49 0 0 1 0 2.12 1.45 1.45 0 0 1-1.06.41z"></path><path fill="#ef5350" d="M23.14 49.92a1.47 1.47 0 0 1-1.06-.44 1.49 1.49 0 0 1 0-2.12L26.47 43a1.5 1.5 0 1 1 2.12 2.12l-4.39 4.36a1.47 1.47 0 0 1-1.06.44zm5.36 5.37h-6.32a1.5 1.5 0 0 1 0-3h6.32a1.5 1.5 0 0 1 0 3zm12.36-5.37a1.47 1.47 0 0 1-1.06-.44l-4.39-4.39A1.5 1.5 0 0 1 37.53 43l4.39 4.39a1.49 1.49 0 0 1 0 2.12 1.47 1.47 0 0 1-1.06.41z"></path><path fill="#ef5350" d="M36.47 49.92a1.45 1.45 0 0 1-1.06-.44 1.49 1.49 0 0 1 0-2.12L39.8 43a1.5 1.5 0 0 1 2.12 2.12l-4.39 4.39a1.48 1.48 0 0 1-1.06.41zm5.35 5.37H35.5a1.5 1.5 0 0 1 0-3h6.32a1.5 1.5 0 0 1 0 3zm12.37-5.37a1.45 1.45 0 0 1-1.06-.44l-4.4-4.39A1.5 1.5 0 0 1 50.86 43l4.39 4.39a1.51 1.51 0 0 1 0 2.12 1.48 1.48 0 0 1-1.06.41z"></path><path fill="#ef5350" d="M49.79 49.92a1.48 1.48 0 0 1-1.06-.44 1.51 1.51 0 0 1 0-2.12l4.4-4.36a1.49 1.49 0 0 1 2.12 0 1.51 1.51 0 0 1 0 2.12l-4.39 4.39a1.49 1.49 0 0 1-1.07.41zm5.36 5.37h-6.32a1.5 1.5 0 0 1 0-3h6.32a1.5 1.5 0 0 1 0 3z"></path></svg>