<svg width="54" height="59" viewBox="0 0 54 59" fill="none" xmlns="http://www.w3.org/2000/svg">
<g clip-path="url(#clip0_2_251)">
<path d="M13.0331 20.6127H41.3631V23.8126H13.0331V20.6127Z" fill="#84879C"/>
<path d="M41.3636 24.2579H13.0331C12.9245 24.2579 12.8202 24.2108 12.7434 24.127C12.6666 24.0431 12.6234 23.9294 12.6234 23.8109V20.6127C12.6234 20.4941 12.6666 20.3804 12.7434 20.2966C12.8202 20.2127 12.9245 20.1656 13.0331 20.1656H41.3636C41.4722 20.1656 41.5764 20.2127 41.6533 20.2966C41.7301 20.3804 41.7733 20.4941 41.7733 20.6127V23.8109C41.7733 23.9294 41.7301 24.0431 41.6533 24.127C41.5764 24.2108 41.4722 24.2579 41.3636 24.2579ZM13.4428 23.3638H40.9538V21.0597H13.4428V23.3638Z" fill="#2F3A5A"/>
<path d="M52.8665 38.5809L49.951 24.2664C49.9245 24.1379 49.8588 24.023 49.7647 23.9405C49.6705 23.8581 49.5535 23.813 49.4327 23.8127H4.96393C4.8432 23.813 4.72616 23.8581 4.63199 23.9405C4.53782 24.023 4.47212 24.1379 4.44565 24.2664L1.53018 38.5809C1.51325 38.6656 1.5139 38.7533 1.53207 38.8377C1.55025 38.9221 1.58549 39.001 1.63522 39.0686C1.68495 39.1362 1.74791 39.1908 1.81948 39.2284C1.89105 39.266 1.96943 39.2856 2.04887 39.2859H52.3478C52.4272 39.2856 52.5056 39.266 52.5772 39.2284C52.6488 39.1908 52.7117 39.1362 52.7614 39.0686C52.8112 39.001 52.8464 38.9221 52.8646 38.8377C52.8828 38.7533 52.8834 38.6656 52.8665 38.5809Z" fill="#D9E2E9"/>
<path d="M52.3462 39.2877H2.05053C1.97082 39.2877 1.89213 39.2682 1.82024 39.2307C1.74836 39.1931 1.68512 39.1384 1.63518 39.0706C1.58525 39.0028 1.54989 38.9237 1.53172 38.839C1.51355 38.7543 1.51303 38.6663 1.5302 38.5814L1.78832 37.3162H50.2362C50.3159 37.3162 50.3946 37.2968 50.4665 37.2592C50.5384 37.2216 50.6016 37.1669 50.6515 37.0991C50.7015 37.0314 50.7368 36.9522 50.755 36.8675C50.7732 36.7828 50.7737 36.6948 50.7565 36.6099L48.1467 23.8109H49.4332C49.5539 23.8113 49.671 23.8568 49.7648 23.9397C49.8587 24.0226 49.9238 24.1381 49.9494 24.2669L52.8665 38.5814C52.8837 38.6663 52.8832 38.7543 52.865 38.839C52.8468 38.9237 52.8115 39.0028 52.7615 39.0706C52.7116 39.1384 52.6484 39.1931 52.5765 39.2307C52.5046 39.2682 52.4259 39.2877 52.3462 39.2877Z" fill="#C1CDD3"/>
<path d="M52.3482 39.7329H2.04842C1.90767 39.7326 1.76878 39.6978 1.64195 39.6312C1.51512 39.5646 1.40358 39.4679 1.31551 39.3481C1.22745 39.2283 1.1651 39.0885 1.13304 38.9389C1.10098 38.7894 1.10004 38.6339 1.13027 38.4839L4.04534 24.1685C4.09076 23.9399 4.20673 23.7353 4.37386 23.5888C4.54098 23.4423 4.74913 23.3629 4.96349 23.3638H49.4331C49.6475 23.3629 49.8556 23.4423 50.0227 23.5888C50.1899 23.7353 50.3058 23.9399 50.3513 24.1685L53.2663 38.483C53.2966 38.633 53.2956 38.7885 53.2636 38.938C53.2315 39.0876 53.1692 39.2274 53.0811 39.3472C52.993 39.467 52.8815 39.5637 52.7547 39.6303C52.6278 39.6969 52.4889 39.7317 52.3482 39.732V39.7329ZM4.96349 24.2579C4.93603 24.2583 4.90949 24.2688 4.8881 24.2876C4.86672 24.3064 4.85172 24.3324 4.84549 24.3616L1.93043 38.6779C1.92682 38.6972 1.92714 38.7171 1.93136 38.7362C1.93559 38.7553 1.94361 38.7732 1.95487 38.7885C1.96613 38.8039 1.98035 38.8164 1.99652 38.8251C2.01268 38.8337 2.0304 38.8385 2.04842 38.8388H52.3482C52.3662 38.8385 52.3839 38.8337 52.4001 38.8251C52.4163 38.8164 52.4305 38.8039 52.4417 38.7885C52.453 38.7732 52.461 38.7553 52.4652 38.7362C52.4695 38.7171 52.4698 38.6972 52.4662 38.6779L49.5511 24.3634C49.5449 24.3342 49.5299 24.3082 49.5085 24.2894C49.4871 24.2706 49.4606 24.2601 49.4331 24.2597L4.96349 24.2579Z" fill="#2F3A5A"/>
<path d="M18.0622 35.8503H5.73987L7.3492 26.6027H18.7473L18.0622 35.8503Z" fill="#3DBCE9"/>
<path d="M18.7461 26.6049L18.66 27.7762H8.43782L7.03252 35.8499H5.74194L7.348 26.6049H18.7461Z" fill="#81DAFC"/>
<path d="M18.0619 36.2974H5.73993C5.67968 36.2973 5.62019 36.2828 5.56568 36.2548C5.51118 36.2268 5.463 36.1861 5.42458 36.1354C5.38616 36.0848 5.35844 36.0255 5.34341 35.9619C5.32837 35.8982 5.32639 35.8318 5.33759 35.7672L6.94692 26.5195C6.96468 26.4172 7.01464 26.3248 7.08817 26.2584C7.16171 26.1919 7.2542 26.1556 7.34967 26.1556H18.7473C18.804 26.1554 18.8602 26.1681 18.9122 26.1928C18.9642 26.2175 19.0109 26.2537 19.0494 26.2991C19.0879 26.3445 19.1174 26.3982 19.1359 26.4567C19.1544 26.5152 19.1616 26.5772 19.157 26.6389L18.4716 35.8865C18.4632 35.9987 18.4164 36.1033 18.3405 36.1795C18.2645 36.2556 18.165 36.2977 18.0619 36.2974ZM6.23444 35.4033H17.6841L18.3032 27.0497H7.6889L6.23444 35.4033Z" fill="#2F3A5A"/>
<path d="M36.7756 29.724H33.8535L33.6901 26.8481H36.5408L36.7756 29.724Z" fill="#84879C"/>
<path d="M36.7756 30.171H33.8532C33.7488 30.1713 33.6482 30.128 33.5721 30.05C33.496 29.9721 33.45 29.8654 33.4435 29.7517L33.2796 26.8758C33.2761 26.8148 33.2841 26.7537 33.3032 26.6962C33.3222 26.6387 33.3518 26.5861 33.3902 26.5416C33.4286 26.4972 33.475 26.4617 33.5264 26.4375C33.5779 26.4134 33.6333 26.4009 33.6893 26.4011H36.5397C36.6423 26.4006 36.7413 26.4422 36.8172 26.5176C36.8931 26.5931 36.9402 26.6968 36.9494 26.8083L37.1841 29.6842C37.1892 29.7462 37.1824 29.8086 37.1641 29.8675C37.1458 29.9264 37.1164 29.9805 37.0778 30.0264C37.0393 30.0722 36.9923 30.1087 36.9401 30.1336C36.8879 30.1585 36.8314 30.1713 36.7744 30.171H36.7756ZM34.2387 29.2769H36.3282L36.1664 27.2952H34.1261L34.2387 29.2769Z" fill="#2F3A5A"/>
<path d="M42.183 29.724H39.2609L38.9647 26.8481H41.8155L42.183 29.724Z" fill="#84879C"/>
<path d="M42.1829 30.171H39.2604C39.1597 30.1711 39.0625 30.1306 38.9874 30.0574C38.9122 29.9841 38.8645 29.8833 38.8532 29.774L38.5574 26.8982C38.5509 26.8356 38.5566 26.7723 38.5742 26.7123C38.5917 26.6524 38.6206 26.5971 38.6591 26.5502C38.6975 26.5033 38.7446 26.4657 38.7973 26.44C38.8499 26.4143 38.907 26.401 38.9646 26.4011H41.8154C41.9142 26.4011 42.0097 26.4401 42.0842 26.511C42.1588 26.5818 42.2073 26.6796 42.221 26.7864L42.5897 29.6623C42.5978 29.7256 42.5934 29.79 42.5767 29.8513C42.56 29.9125 42.5315 29.9692 42.493 30.0174C42.4546 30.0656 42.4071 30.1043 42.3538 30.1308C42.3006 30.1573 42.2427 30.171 42.1841 30.171H42.1829ZM39.6267 29.2769H41.7121L41.4589 27.2952H39.4227L39.6267 29.2769Z" fill="#2F3A5A"/>
<path d="M47.5903 29.724H44.6682L44.2393 26.8481H47.09L47.5903 29.724Z" fill="#84879C"/>
<path d="M47.5903 30.171H44.6683C44.571 30.1711 44.4768 30.1335 44.4026 30.0647C44.3285 29.996 44.2792 29.9007 44.2635 29.796L43.8349 26.9201C43.8254 26.8561 43.8287 26.7906 43.8446 26.7281C43.8606 26.6657 43.8888 26.6078 43.9273 26.5584C43.9658 26.509 44.0137 26.4694 44.0676 26.4422C44.1216 26.415 44.1803 26.401 44.2397 26.4011H47.09C47.1855 26.4011 47.2778 26.4375 47.3513 26.5039C47.4247 26.5704 47.4746 26.6627 47.4924 26.765L47.993 29.6408C48.0043 29.7054 48.0023 29.772 47.9872 29.8357C47.9721 29.8993 47.9444 29.9586 47.9059 30.0093C47.8675 30.0599 47.8192 30.1006 47.7647 30.1286C47.7101 30.1566 47.6506 30.1711 47.5903 30.171ZM45.0165 29.2769H47.0954L46.7508 27.2952H44.7215L45.0165 29.2769Z" fill="#2F3A5A"/>
<path d="M37.2529 35.5651H34.185L34.0051 32.3991H36.9944L37.2529 35.5651Z" fill="#84879C"/>
<path d="M37.253 36.0122H34.1851C34.0807 36.0124 33.9801 35.9691 33.904 35.8912C33.8279 35.8132 33.7819 35.7065 33.7754 35.5928L33.5955 32.4268C33.592 32.3658 33.6001 32.3047 33.6191 32.2472C33.6381 32.1897 33.6678 32.1371 33.7062 32.0926C33.7446 32.0481 33.7909 32.0127 33.8423 31.9885C33.8938 31.9644 33.9492 31.9519 34.0052 31.9521H36.9961C37.0987 31.9516 37.1978 31.9932 37.2736 32.0686C37.3495 32.144 37.3967 32.2478 37.4058 32.3593L37.6643 35.5253C37.6694 35.5873 37.6626 35.6497 37.6443 35.7086C37.626 35.7676 37.5966 35.8217 37.558 35.8675C37.5195 35.9133 37.4726 35.9498 37.4203 35.9748C37.3681 35.9997 37.3116 36.0124 37.2546 36.0122H37.253ZM34.5702 35.1181H36.8052L36.6216 32.8462H34.4412L34.5702 35.1181Z" fill="#2F3A5A"/>
<path d="M42.9299 35.5651H39.862L39.5363 32.3991H42.5251L42.9299 35.5651Z" fill="#84879C"/>
<path d="M42.9311 36.0122H39.8619C39.7611 36.0122 39.6639 35.9716 39.5887 35.8983C39.5136 35.825 39.4659 35.724 39.4547 35.6147L39.1269 32.4487C39.1205 32.3862 39.1263 32.3229 39.1438 32.263C39.1614 32.2031 39.1903 32.1479 39.2288 32.101C39.2672 32.0541 39.3143 32.0166 39.3669 31.991C39.4195 31.9653 39.4765 31.952 39.5342 31.9521H42.525C42.6239 31.9521 42.7194 31.9911 42.7939 32.062C42.8684 32.1328 42.917 32.2306 42.9307 32.3374L43.3359 35.503C43.344 35.5663 43.3396 35.6309 43.3229 35.6922C43.3062 35.7535 43.2777 35.8103 43.2392 35.8585C43.2007 35.9068 43.1532 35.9455 43.0998 35.972C43.0464 35.9985 42.9885 36.0122 42.9298 36.0122H42.9311ZM40.2294 35.1181H42.4603L42.1698 32.8462H39.9943L40.2294 35.1181Z" fill="#2F3A5A"/>
<path d="M48.6068 35.5651H45.5389L45.0669 32.3991H48.0561L48.6068 35.5651Z" fill="#84879C"/>
<path d="M48.6068 36.0122H45.5393C45.442 36.0123 45.3478 35.9745 45.2736 35.9057C45.1994 35.8369 45.1501 35.7415 45.1346 35.6366L44.6626 32.4711C44.653 32.4071 44.6563 32.3417 44.6722 32.2792C44.6881 32.2168 44.7163 32.1589 44.7548 32.1096C44.7932 32.0602 44.8411 32.0205 44.895 31.9933C44.9489 31.9661 45.0076 31.9521 45.067 31.9521H48.0578C48.1533 31.952 48.2458 31.9883 48.3193 32.0548C48.3928 32.1212 48.4428 32.2136 48.4606 32.316L49.0108 35.4815C49.0221 35.5461 49.0201 35.6127 49.0051 35.6764C48.9901 35.7401 48.9624 35.7994 48.924 35.8501C48.8856 35.9008 48.8374 35.9416 48.7828 35.9696C48.7283 35.9976 48.6687 36.0121 48.6085 36.0122H48.6068ZM45.8876 35.1181H48.1119L47.7169 32.8462H45.5488L45.8876 35.1181Z" fill="#2F3A5A"/>
<path d="M43.8799 39.2859V41.2082C43.88 41.471 43.9757 41.7231 44.146 41.9089C44.3164 42.0947 44.5473 42.1992 44.7882 42.1993H49.125C49.3658 42.1992 49.5968 42.0947 49.7671 41.9089C49.9374 41.7231 50.0332 41.471 50.0333 41.2082V39.2859H43.8799Z" fill="#84879C"/>
<path d="M49.125 42.6477H44.7887C44.4391 42.6473 44.1041 42.4957 43.8569 42.2261C43.6097 41.9565 43.4706 41.5909 43.4702 41.2095V39.2872C43.4702 39.1687 43.5134 39.055 43.5902 38.9711C43.667 38.8873 43.7713 38.8402 43.8799 38.8402H50.0333C50.142 38.8402 50.2462 38.8873 50.323 38.9711C50.3999 39.055 50.443 39.1687 50.443 39.2872V41.2095C50.4426 41.5908 50.3036 41.9564 50.0565 42.226C49.8094 42.4956 49.4744 42.6472 49.125 42.6477ZM44.2904 39.733V41.2082C44.2907 41.3525 44.3433 41.4908 44.4369 41.5928C44.5304 41.6948 44.6572 41.7521 44.7895 41.7523H49.1258C49.258 41.7521 49.3848 41.6948 49.4783 41.5928C49.5717 41.4908 49.6243 41.3525 49.6244 41.2082V39.733H44.2904Z" fill="#2F3A5A"/>
<path d="M4.36328 39.2859V41.2082C4.36339 41.471 4.45912 41.7231 4.62944 41.9089C4.79976 42.0947 5.03073 42.1992 5.2716 42.1993H9.60835C9.84922 42.1992 10.0802 42.0947 10.2505 41.9089C10.4208 41.7231 10.5166 41.471 10.5167 41.2082V39.2859H4.36328Z" fill="#84879C"/>
<path d="M9.60798 42.6477H5.27164C4.92221 42.6472 4.58722 42.4956 4.34013 42.226C4.09305 41.9564 3.95405 41.5908 3.95361 41.2095V39.2872C3.95361 39.1687 3.99678 39.055 4.07361 38.9711C4.15045 38.8873 4.25466 38.8402 4.36332 38.8402H10.5167C10.6254 38.8402 10.7296 38.8873 10.8064 38.9711C10.8833 39.055 10.9264 39.1687 10.9264 39.2872V41.2095C10.926 41.5909 10.7869 41.9565 10.5398 42.2261C10.2926 42.4957 9.95748 42.6473 9.60798 42.6477ZM4.77344 39.733V41.2082C4.77355 41.3525 4.82611 41.4908 4.9196 41.5928C5.01308 41.6948 5.13984 41.7521 5.27205 41.7523H9.60798C9.74023 41.7521 9.86703 41.6948 9.96058 41.5928C10.0541 41.4908 10.1068 41.3525 10.107 41.2082V39.733H4.77344Z" fill="#2F3A5A"/>
<path d="M48.8624 16.9549H5.53427C5.08973 16.9549 4.66341 17.1476 4.34908 17.4906C4.03474 17.8336 3.85815 18.2988 3.85815 18.7838C3.85815 19.2689 4.03474 19.734 4.34908 20.077C4.66341 20.42 5.08973 20.6127 5.53427 20.6127H48.8624C49.307 20.6127 49.7333 20.42 50.0476 20.077C50.362 19.734 50.5386 19.2689 50.5386 18.7838C50.5386 18.2988 50.362 17.8336 50.0476 17.4906C49.7333 17.1476 49.307 16.9549 48.8624 16.9549Z" fill="#D9E2E9"/>
<path d="M49.7158 17.2124C49.7192 17.2331 49.7205 17.254 49.7199 17.275C49.7199 17.5151 49.6766 17.7529 49.5924 17.9748C49.5082 18.1966 49.3848 18.3982 49.2292 18.568C49.0736 18.7378 48.8888 18.8725 48.6855 18.9644C48.4822 19.0562 48.2642 19.1035 48.0442 19.1034H4.71352C4.41302 19.1041 4.11817 19.0144 3.86133 18.8441C3.87484 19.3183 4.05681 19.7681 4.36876 20.0985C4.68072 20.4288 5.0982 20.6139 5.53293 20.6145H48.8636C49.231 20.6145 49.5882 20.4828 49.8803 20.2396C50.1724 19.9964 50.3831 19.6552 50.48 19.2684C50.5768 18.8817 50.5545 18.471 50.4164 18.0994C50.2783 17.7279 50.0321 17.4163 49.7158 17.2124Z" fill="#C1CDD3"/>
<path d="M48.8624 21.0597H5.53418C4.98099 21.0597 4.45045 20.8199 4.05929 20.3931C3.66812 19.9663 3.44836 19.3874 3.44836 18.7838C3.44836 18.1802 3.66812 17.6013 4.05929 17.1745C4.45045 16.7477 4.98099 16.5079 5.53418 16.5079H48.8624C49.4156 16.5079 49.9461 16.7477 50.3373 17.1745C50.7284 17.6013 50.9482 18.1802 50.9482 18.7838C50.9482 19.3874 50.7284 19.9663 50.3373 20.3931C49.9461 20.8199 49.4156 21.0597 48.8624 21.0597ZM5.53418 17.402C5.19831 17.402 4.8762 17.5476 4.6387 17.8067C4.4012 18.0658 4.26778 18.4173 4.26778 18.7838C4.26778 19.1503 4.4012 19.5018 4.6387 19.7609C4.8762 20.02 5.19831 20.1656 5.53418 20.1656H48.8624C49.1982 20.1656 49.5203 20.02 49.7578 19.7609C49.9953 19.5018 50.1288 19.1503 50.1288 18.7838C50.1288 18.4173 49.9953 18.0658 49.7578 17.8067C49.5203 17.5476 49.1982 17.402 48.8624 17.402H5.53418Z" fill="#2F3A5A"/>
</g>
<defs>
<clipPath id="clip0_2_251">
<rect width="52.4425" height="57.2222" fill="white" transform="translate(0.977051 0.966675)"/>
</clipPath>
</defs>
</svg>
